<?xml version="1.0" standalone="no"?>
<!DOCTYPE svg PUBLIC "-//W3C//DTD SVG 1.1//EN" "http://www.w3.org/Graphics/SVG/1.1/DTD/svg11.dtd" >
<svg>
<metadata>
Created by FontForge 20120731 at Tue Jun 23 21:37:33 2015
 By ,,,
Copyright (c) 2009 Canada Type. All rights reserved.
</metadata>
<defs>
<font id="InformaPro-Italic" horiz-adv-x="586" >
  <font-face 
    font-family="8d4d0dd98e811eb13d19782f1d1b98f939ee3ec7031b1001eef9e6203105ea90"
    font-weight="400"
    font-style="italic"
    font-stretch="normal"
    units-per-em="1000"
    panose-1="2 11 5 3 4 4 0 2 2 3"
    ascent="750"
    descent="-250"
    x-height="480"
    cap-height="720"
    bbox="-100 -240 1795 947"
    underline-thickness="50"
    underline-position="-50"
    slope="-10"
    unicode-range="U+0020-2122"
  />
<missing-glyph horiz-adv-x="275" 
 />
    <glyph glyph-name=".notdef" horiz-adv-x="275" 
 />
    <glyph glyph-name=".null" horiz-adv-x="0" 
 />
    <glyph glyph-name="nonmarkingreturn" horiz-adv-x="333" 
 />
    <glyph glyph-name="space" unicode=" " horiz-adv-x="274" 
 />
    <glyph glyph-name="space" unicode="&#xa0;" horiz-adv-x="274" 
 />
    <glyph glyph-name="exclam" unicode="!" horiz-adv-x="323" 
d="M168 200l70 520h101l-113 -520h-58zM229 57q0 -27 -21 -47t-48 -20q-21 0 -34.5 14.5t-13.5 36.5q0 27 21 47.5t48 20.5q21 0 34.5 -15t13.5 -37z" />
    <glyph glyph-name="quotedbl" unicode="&#x22;" horiz-adv-x="304" 
d="M190 471h-58l27 248h91zM338 471h-58l28 248h90z" />
    <glyph glyph-name="numbersign" unicode="#" horiz-adv-x="608" 
d="M350 0l43 179h-120l-43 -179h-70l43 179h-119l13 71h122l35 149h-131l12 71h135l42 179h71l-42 -179h120l42 179h70l-42 -179h110l-13 -71h-114l-34 -149h122l-13 -71h-126l-43 -179h-70zM324 399l-35 -149h120l36 149h-121z" />
    <glyph glyph-name="dollar" unicode="$" horiz-adv-x="526" 
d="M200 -120l19 110q-82 -1 -160 34l32 84q74 -41 142 -42l49 274q-66 32 -104.5 72t-38.5 100q0 84 57 141t154 72l19 104h68l-17 -99q74 -1 134 -27l-27 -81q-66 30 -121 32l-43 -248q77 -36 117 -73.5t40 -100.5q0 -95 -65 -157t-167 -79l-20 -116h-68zM423 203
q0 60 -79 105l-42 -234q54 12 87.5 44.5t33.5 84.5zM235 538q0 -57 64 -99l38 210q-102 -19 -102 -111z" />
    <glyph glyph-name="percent" unicode="%" horiz-adv-x="906" 
d="M145 489q0 39 12 78.5t36 76t66.5 59t97.5 22.5q65 0 98.5 -44t33.5 -110q0 -95 -57.5 -164.5t-149.5 -69.5q-65 0 -101 42.5t-36 109.5zM225 499q0 -44 18.5 -73.5t56.5 -29.5q47 0 78 52.5t31 115.5q0 45 -17.5 73.5t-53.5 28.5q-50 0 -81.5 -52t-31.5 -115zM545 147
q0 31 7 62.5t23 63t39.5 56t60 39.5t81.5 15q65 0 99 -44t34 -110q0 -94 -58.5 -164t-149.5 -70q-65 0 -100.5 42.5t-35.5 109.5zM624 157q0 -44 18 -73.5t56 -29.5q48 0 79 52t31 116q0 46 -18 74t-54 28q-50 0 -81 -51.5t-31 -115.5zM234 7l506 743l60 -38l-505 -742z" />
    <glyph glyph-name="ampersand" unicode="&#x26;" horiz-adv-x="654" 
d="M575 343l-55 -318q-112 -35 -235 -35q-90 0 -148 39.5t-58 121.5t53.5 148.5t140.5 83.5q-99 39 -99 134q0 89 77 151t193 62q60 0 107 -17l-29 -79q-41 19 -106 19q-58 0 -106 -30t-48 -89q0 -56 49.5 -85t120.5 -29h76l15 82l83 18l-17 -100h110l-13 -77h-111zM316 64
q77 0 133 21l45 258h-79q-114 0 -178 -44.5t-64 -127.5q0 -51 39 -79t104 -28z" />
    <glyph glyph-name="quotesingle" unicode="'" horiz-adv-x="155" 
d="M191 475h-59l28 249h91z" />
    <glyph glyph-name="parenleft" unicode="(" horiz-adv-x="306" 
d="M251 -146l-62 -13q-73 170 -73 346q0 146 53.5 289.5t190.5 302.5l55 -12q-213 -284 -213 -582q0 -182 49 -331z" />
    <glyph glyph-name="parenright" unicode=")" horiz-adv-x="305" 
d="M165 767l62 12q73 -171 73 -346q0 -146 -53.5 -289t-190.5 -303l-55 12q213 286 213 583q0 179 -49 331z" />
    <glyph glyph-name="asterisk" unicode="*" horiz-adv-x="372" 
d="M356 730l-38 -124l116 54l9 -78l-121 -22l67 -92l-74 -47l-35 112l-76 -114l-55 48l101 92l-116 21l39 80l95 -55l9 125h79z" />
    <glyph glyph-name="plus" unicode="+" horiz-adv-x="579" 
d="M265 60l37 209h-198l12 71h198l38 210h70l-37 -210h198l-12 -71h-199l-37 -209h-70z" />
    <glyph glyph-name="comma" unicode="," horiz-adv-x="269" 
d="M218 98l-124 -248h-65l99 248h90z" />
    <glyph glyph-name="hyphen" unicode="-" horiz-adv-x="351" 
d="M96 249l13 72h247l-12 -72h-248z" />
    <glyph glyph-name="period" unicode="." horiz-adv-x="284" 
d="M210 58q0 -27 -21.5 -47.5t-48.5 -20.5q-21 0 -35 15t-14 36q0 27 21.5 47t48.5 20q21 0 35 -14.5t14 -35.5z" />
    <glyph glyph-name="slash" unicode="/" horiz-adv-x="447" 
d="M52 -150l-63 22l521 967l63 -24z" />
    <glyph glyph-name="zero" unicode="0" horiz-adv-x="582" 
d="M109 246q0 18 1.5 43.5t8.5 74.5t19 94.5t36 96.5t56.5 88.5t83 62t112.5 24.5q63 0 103.5 -39.5t55.5 -95.5t15 -128q0 -54 -9 -113t-32 -125.5t-57 -118.5t-90 -86t-126 -34q-91 0 -134 72t-43 184zM198 262q0 -86 26.5 -143.5t83.5 -57.5t100 45t64 113.5t30.5 128.5
t9.5 109q0 86 -26 144t-83 58q-91 0 -148 -107.5t-57 -289.5z" />
    <glyph glyph-name="one" unicode="1" horiz-adv-x="390" 
d="M287 0h-87l114 643l-161 -33l3 67l235 48h24z" />
    <glyph glyph-name="two" unicode="2" horiz-adv-x="503" 
d="M164 622l-7 67q89 41 185 41q90 0 133.5 -41t43.5 -114q0 -37 -15 -79.5t-34.5 -78t-56.5 -81t-63 -74.5t-74 -74t-68 -63t-65 -57h320l-12 -68h-409l16 88q8 7 53 47t58.5 52.5t53 49t54.5 54t45.5 50.5t43 54.5t29.5 50t23 53.5t6 49q0 51 -28 81t-84 30
q-66 0 -148 -37z" />
    <glyph glyph-name="three" unicode="3" horiz-adv-x="525" 
d="M230 339h-38l13 69h50q24 0 52.5 7.5t60.5 23.5t53 49.5t21 79.5q0 42 -28.5 66.5t-87.5 24.5q-75 0 -142 -37l5 74q76 34 163 34q86 0 135.5 -41t49.5 -103q0 -72 -47 -125.5t-112 -71.5q55 -9 88.5 -49.5t33.5 -96.5q0 -114 -85 -183.5t-206 -69.5q-106 0 -159 29
l30 72q26 -13 72.5 -22t81.5 -9q72 0 122 48.5t50 117.5q0 113 -176 113z" />
    <glyph glyph-name="four" unicode="4" horiz-adv-x="574" 
d="M427 0h-86l39 227h-297l5 79l367 414h99l-75 -425h107l-11 -68h-109zM162 295h231l59 331z" />
    <glyph glyph-name="five" unicode="5" horiz-adv-x="516" 
d="M261 652l-37 -217q38 9 81 9q99 0 150.5 -48t51.5 -127q0 -124 -87.5 -201.5t-218.5 -77.5q-106 0 -152 30l30 76q53 -35 149 -35q81 0 135.5 52t54.5 135q0 59 -37.5 92.5t-103.5 33.5q-40 0 -99 -18l-43 13l62 351h349l-13 -68h-272z" />
    <glyph glyph-name="six" unicode="6" horiz-adv-x="568" 
d="M595 707l-28 -74q-56 27 -120 27q-75 0 -128 -59t-85 -152q-1 -2 -10 -27.5t-14 -38.5l1 -1q16 20 41 41q55 45 139 45q81 0 125.5 -50t44.5 -134q0 -126 -82.5 -210t-200.5 -84q-90 0 -134 62.5t-44 159.5q0 35 4.5 76t16 92t29.5 98.5t47.5 94t67 81t91.5 55.5t118 21
q78 0 121 -23zM472 260q0 61 -28.5 99.5t-79.5 38.5q-72 0 -124.5 -57.5t-52.5 -138.5q0 -62 30.5 -102t89.5 -40q66 0 115.5 57.5t49.5 142.5z" />
    <glyph glyph-name="seven" unicode="7" horiz-adv-x="466" 
d="M445 652h-304l12 68h397l-6 -34l-333 -686h-81z" />
    <glyph glyph-name="eight" unicode="8" horiz-adv-x="576" 
d="M88 151q0 92 47 142t131 84q-93 63 -93 145t73.5 145t177.5 63q75 0 125 -38t50 -106q0 -57 -24.5 -100t-57.5 -67t-83 -46q55 -33 86.5 -70t31.5 -90q0 -98 -78.5 -160.5t-191.5 -62.5q-83 0 -138.5 44.5t-55.5 116.5zM463 189q0 24 -9.5 45t-31 39.5t-39 30.5t-49.5 30
q-76 -31 -116 -66t-40 -96q0 -53 37.5 -82.5t89.5 -29.5q68 0 113 33.5t45 95.5zM262 543q0 -41 26 -70t75 -58q71 27 108.5 60t37.5 90q0 43 -28 69t-81 26q-54 0 -96 -32t-42 -85z" />
    <glyph glyph-name="nine" unicode="9" horiz-adv-x="568" 
d="M99 13l28 74q54 -26 121 -26q139 0 212 210q4 8 12 31.5t13 35.5h-2q-19 -23 -41 -41q-57 -45 -138 -45t-126 50t-45 133q0 127 82 211t201 84q90 0 134 -62.5t44 -159.5q0 -42 -6.5 -90.5t-21.5 -109.5t-43.5 -115.5t-68 -101t-100 -74t-133.5 -27.5q-74 0 -122 23z
M223 460q0 -61 28.5 -99.5t78.5 -38.5q72 0 125 57t53 138q0 62 -30.5 102t-89.5 40q-66 0 -115.5 -57t-49.5 -142z" />
    <glyph glyph-name="colon" unicode=":" horiz-adv-x="283" 
d="M210 58q0 -27 -21.5 -47.5t-48.5 -20.5q-21 0 -35 15t-14 36q0 27 21.5 47t48.5 20q21 0 35 -14.5t14 -35.5zM278 439q0 -27 -21.5 -47t-48.5 -20q-22 0 -35.5 14.5t-13.5 35.5q0 27 21.5 47.5t48.5 20.5q21 0 35 -15t14 -36z" />
    <glyph glyph-name="semicolon" unicode=";" horiz-adv-x="284" 
d="M297 439q0 -27 -21.5 -47t-48.5 -20q-21 0 -35 14.5t-14 35.5q0 27 21.5 47.5t48.5 20.5q21 0 35 -15t14 -36zM219 98l-126 -248h-64l99 248h91z" />
    <glyph glyph-name="less" unicode="&#x3c;" horiz-adv-x="568" 
d="M547 554l27 -59l-337 -190l269 -201l-55 -65l-330 245l7 37z" />
    <glyph glyph-name="equal" unicode="=" horiz-adv-x="560" 
d="M566 360h-446l12 70h447zM530 149h-448l14 71h446z" />
    <glyph glyph-name="greater" unicode="&#x3e;" horiz-adv-x="569" 
d="M118 39l-29 58l338 191l-268 201l55 65l329 -246l-7 -37z" />
    <glyph glyph-name="question" unicode="?" horiz-adv-x="527" 
d="M209 627l1 76q73 27 148 27q85 0 131 -36t46 -99q0 -46 -17 -85.5t-42.5 -66t-56.5 -54.5t-59 -52t-51 -59t-30 -75l-3 -24h-70l4 39q8 45 35 85.5t59 69.5t63.5 58t52.5 64.5t21 76.5q0 82 -106 82q-54 0 -126 -27zM281 57q0 -27 -21.5 -47t-48.5 -20q-21 0 -34 15
t-13 36q0 27 21 47.5t48 20.5q21 0 34.5 -15t13.5 -37z" />
    <glyph glyph-name="at" unicode="@" horiz-adv-x="1069" 
d="M700 -193q-106 -36 -194 -36q-198 0 -299.5 102.5t-101.5 268.5q0 158 77.5 288t209.5 203t289 73q161 0 259 -89.5t98 -236.5q0 -99 -39.5 -188.5t-110 -145.5t-154.5 -56q-48 0 -74 23.5t-26 65.5q-70 -89 -167 -89q-64 0 -100 47.5t-36 127.5q0 138 84 232t204 94
q81 0 153 -40l-49 -279q-10 -56 0.5 -83.5t47.5 -27.5q46 0 88 46.5t66 116t24 137.5q0 124 -77.5 199.5t-213.5 75.5q-92 0 -176 -33.5t-148 -93.5t-102 -150.5t-38 -196.5q0 -147 85.5 -233t249.5 -86q66 0 159 31zM649 217l33 184q-42 21 -82 21q-75 0 -126.5 -67.5
t-51.5 -168.5q0 -55 18 -90t54 -35q46 0 95.5 48t59.5 108z" />
    <glyph glyph-name="A" unicode="A" horiz-adv-x="649" 
d="M543 0l-47 249h-261l-137 -249h-85l408 720h67l149 -720h-94zM428 596l-150 -271h202z" />
    <glyph glyph-name="B" unicode="B" horiz-adv-x="580" 
d="M95 6l124 704q88 20 184 20q90 0 141.5 -35t51.5 -106q0 -65 -39.5 -119t-100.5 -79l-2 -3q55 -11 83.5 -50.5t28.5 -92.5q0 -39 -16.5 -80.5t-51 -82t-99.5 -66.5t-149 -26q-70 0 -155 16zM239 332l-45 -256q27 -9 77 -9q90 0 144.5 42t54.5 116q0 108 -154 108
q-45 0 -77 -1zM294 644l-42 -236h42q83 0 147.5 42.5t64.5 114.5q0 88 -134 88q-44 0 -78 -9z" />
    <glyph glyph-name="B" unicode="&#xe000;" horiz-adv-x="580" 
d="M95 6l124 704q88 20 184 20q90 0 141.5 -35t51.5 -106q0 -65 -39.5 -119t-100.5 -79l-2 -3q55 -11 83.5 -50.5t28.5 -92.5q0 -39 -16.5 -80.5t-51 -82t-99.5 -66.5t-149 -26q-70 0 -155 16zM239 332l-45 -256q27 -9 77 -9q90 0 144.5 42t54.5 116q0 108 -154 108
q-45 0 -77 -1zM294 644l-42 -236h42q83 0 147.5 42.5t64.5 114.5q0 88 -134 88q-44 0 -78 -9z" />
    <glyph glyph-name="C" unicode="C" horiz-adv-x="601" 
d="M561 118l19 -65q-85 -63 -203 -63q-125 0 -194 77.5t-69 206.5q0 123 54 227.5t150 166.5t212 62q91 0 142 -32l-29 -76q-60 32 -137 32q-125 0 -210.5 -107.5t-85.5 -248.5q0 -104 48.5 -168t145.5 -64q83 0 157 52z" />
    <glyph glyph-name="D" unicode="D" horiz-adv-x="663" 
d="M267 -10q-106 0 -171 20l123 700q87 20 190 20q128 0 200 -78t72 -208q0 -122 -49.5 -224.5t-145.5 -166t-219 -63.5zM294 642l-100 -564q32 -12 99 -12q123 0 207.5 101t84.5 252q0 103 -50.5 169t-150.5 66q-28 0 -90 -12z" />
    <glyph glyph-name="E" unicode="E" horiz-adv-x="535" 
d="M294 645l-43 -240h291l-14 -75h-289l-46 -255h303l-12 -75h-390l127 720h385l-14 -75h-298z" />
    <glyph glyph-name="E" unicode="&#xe001;" horiz-adv-x="535" 
d="M294 645l-43 -240h291l-14 -75h-289l-46 -255h303l-12 -75h-390l127 720h385l-14 -75h-298z" />
    <glyph glyph-name="F" unicode="F" horiz-adv-x="503" 
d="M294 645l-44 -251h271l-12 -75h-272l-56 -319h-87l127 720h371l-12 -75h-286z" />
    <glyph glyph-name="G" unicode="G" horiz-adv-x="663" 
d="M659 399l-65 -369q-80 -40 -192 -40q-146 0 -216.5 79t-70.5 208q0 191 125 322t304 131q81 0 147 -30l-31 -79q-63 33 -140 33q-123 0 -216.5 -101t-93.5 -253q0 -111 56 -172.5t161 -61.5q53 0 91 21l41 238h-131l12 74h219z" />
    <glyph glyph-name="H" unicode="H" horiz-adv-x="686" 
d="M563 332h-324l-58 -332h-87l127 720h87l-55 -312h323l56 312h86l-127 -720h-86z" />
    <glyph glyph-name="I" unicode="I" horiz-adv-x="274" 
d="M308 720l-127 -720h-87l127 720h87z" />
    <glyph glyph-name="J" unicode="J" horiz-adv-x="380" 
d="M134 66q87 0 115 160l87 494h87l-85 -478q-22 -128 -75 -190t-156 -62q-45 0 -90 24l24 74q40 -22 93 -22z" />
    <glyph glyph-name="K" unicode="K" 
d="M253 410l317 310h106l-347 -332l248 -388h-116l-219 351l-61 -351h-87l127 720h87z" />
    <glyph glyph-name="L" unicode="L" horiz-adv-x="493" 
d="M193 75h283l-13 -75h-369l127 720h87z" />
    <glyph glyph-name="M" unicode="M" horiz-adv-x="858" 
d="M462 167l292 553h97l-65 -720h-87l59 584l-289 -547h-71l-99 548l-146 -585h-84l189 720h102z" />
    <glyph glyph-name="N" unicode="N" horiz-adv-x="685" 
d="M506 0l-233 572l-100 -572h-79l127 720h87l231 -569l101 569h78l-127 -720h-85z" />
    <glyph glyph-name="O" unicode="O" horiz-adv-x="715" 
d="M728 443q0 -84 -27.5 -165.5t-75.5 -145.5t-120 -103t-154 -39q-62 0 -109.5 24.5t-74 66t-39.5 91.5t-13 107q0 191 108.5 321t267.5 130q112 0 174.5 -79t62.5 -208zM633 419q0 97 -42 166t-123 69q-75 0 -136 -58t-91.5 -139t-30.5 -161q0 -100 41.5 -165t123.5 -65
q72 0 132 49.5t93 130t33 173.5z" />
    <glyph glyph-name="P" unicode="P" horiz-adv-x="545" 
d="M232 290l-51 -290h-87l125 711q103 19 187 19q95 0 148.5 -47t53.5 -123q0 -88 -50.5 -151t-126 -91t-165.5 -28h-34zM294 643l-50 -281h48q90 0 155 47.5t65 131.5q0 55 -34 84t-95 29q-38 0 -89 -11z" />
    <glyph glyph-name="Q" unicode="Q" horiz-adv-x="715" 
d="M728 443q0 -158 -88 -289t-226 -157q8 -3 17 -7.5t18.5 -12.5t17 -14.5t18 -18t16.5 -18.5t17 -20.5t14.5 -18.5t14.5 -19.5t13 -16.5l-109 -27l-126 167q-56 5 -97.5 31t-65.5 67t-35.5 88.5t-11.5 101.5q0 191 108.5 321t267.5 130q112 0 174.5 -79t62.5 -208zM633 419
q0 97 -42 166t-123 69q-75 0 -136 -58t-91.5 -139t-30.5 -161q0 -100 41.5 -165t123.5 -65q72 0 132 49.5t93 130t33 173.5z" />
    <glyph glyph-name="R" unicode="R" horiz-adv-x="579" 
d="M541 0h-90l-21 191q-8 77 -36 105t-101 28h-55l-57 -324h-87l126 712q98 18 182 18q92 0 146 -38t54 -112q0 -75 -52.5 -136.5t-114.5 -75.5q39 -9 55 -37.5t24 -91.5zM294 644l-43 -246h71q73 0 129 46.5t56 114.5q0 46 -33.5 70.5t-93.5 24.5q-28 0 -86 -10z" />
    <glyph glyph-name="S" unicode="S" horiz-adv-x="512" 
d="M56 24l31 84q69 -42 150 -42q69 0 120 35t51 102q0 41 -27 68t-81 59q-80 48 -106 74q-47 46 -47 107q0 98 73 158.5t192 60.5q82 0 138 -28l-27 -80q-62 32 -133 32q-147 0 -147 -118q0 -38 25.5 -65t74.5 -56q81 -47 106 -69q55 -50 55 -116q0 -111 -83.5 -175.5
t-205.5 -64.5q-91 0 -159 34z" />
    <glyph glyph-name="S" unicode="&#xe002;" horiz-adv-x="512" 
d="M56 24l31 84q69 -42 150 -42q69 0 120 35t51 102q0 41 -27 68t-81 59q-80 48 -106 74q-47 46 -47 107q0 98 73 158.5t192 60.5q82 0 138 -28l-27 -80q-62 32 -133 32q-147 0 -147 -118q0 -38 25.5 -65t74.5 -56q81 -47 106 -69q55 -50 55 -116q0 -111 -83.5 -175.5
t-205.5 -64.5q-91 0 -159 34z" />
    <glyph glyph-name="T" unicode="T" horiz-adv-x="543" 
d="M429 648l-114 -648h-86l114 648h-209l13 72h503l-12 -72h-209z" />
    <glyph glyph-name="U" unicode="U" horiz-adv-x="643" 
d="M315 -10q-105 0 -156.5 54.5t-31.5 169.5l89 506h87l-84 -480q-31 -174 120 -174q89 0 136 53t66 157l77 444h78l-85 -478q-21 -122 -98 -187t-198 -65z" />
    <glyph glyph-name="V" unicode="V" horiz-adv-x="624" 
d="M331 137l319 583h87l-400 -720h-74l-123 720h95z" />
    <glyph glyph-name="W" unicode="W" horiz-adv-x="889" 
d="M658 157l263 563h81l-339 -720h-74l-57 505l-236 -505h-74l-82 720h92l59 -563l265 563h41z" />
    <glyph glyph-name="X" unicode="X" horiz-adv-x="593" 
d="M481 0l-135 313l-241 -313h-92l301 384l-145 336h97l115 -266l206 266h91l-265 -337l167 -383h-99z" />
    <glyph glyph-name="Y" unicode="Y" horiz-adv-x="549" 
d="M375 328l-57 -328h-86l55 312l-148 408h100l110 -309l224 309h90z" />
    <glyph glyph-name="Z" unicode="Z" horiz-adv-x="529" 
d="M177 76h324l-14 -76h-444l5 26l418 618h-297l14 76h414l-5 -29z" />
    <glyph glyph-name="bracketleft" unicode="[" horiz-adv-x="294" 
d="M280 703l-136 -766h107l-13 -72h-182l160 909h183l-13 -71h-106z" />
    <glyph glyph-name="backslash" unicode="\" horiz-adv-x="447" 
d="M227 839l179 -967l-70 -22l-181 965z" />
    <glyph glyph-name="bracketright" unicode="]" horiz-adv-x="295" 
d="M128 -63l136 766h-107l13 71h182l-160 -909h-182l12 72h106z" />
    <glyph glyph-name="asciicircum" unicode="^" horiz-adv-x="559" 
d="M131 376l247 344h59l122 -344h-77l-90 266l-183 -266h-78z" />
    <glyph glyph-name="underscore" unicode="_" horiz-adv-x="388" 
d="M-2 -36l12 72h380l-12 -72h-380z" />
    <glyph glyph-name="grave" unicode="`" horiz-adv-x="304" 
d="M343 568l-65 -21l-100 149l86 34z" />
    <glyph glyph-name="a" unicode="a" 
d="M531 451l-49 -279q-11 -44 -2.5 -77t44.5 -33q33 0 67 14l2 -59q-46 -27 -100 -27q-90 0 -98 89q-33 -40 -82.5 -64.5t-94.5 -24.5q-68 0 -105 47t-37 128q0 141 85.5 233.5t210.5 92.5q87 0 159 -40zM409 217l33 181q-45 21 -88 21q-82 0 -135 -64.5t-53 -169.5
q0 -123 77 -123q50 0 103 47t63 108z" />
    <glyph glyph-name="b" unicode="b" horiz-adv-x="514" 
d="M216 -10q-91 0 -149 23l127 717h80l-54 -305q60 65 149 65q80 0 117.5 -53t37.5 -129q0 -134 -88.5 -226t-219.5 -92zM192 263l-32 -185q27 -18 84 -18q76 0 132.5 63.5t56.5 166.5q0 56 -22 92.5t-68 36.5q-55 0 -98 -47.5t-53 -108.5z" />
    <glyph glyph-name="b" unicode="&#xe003;" horiz-adv-x="514" 
d="M216 -10q-91 0 -149 23l127 717h80l-54 -305q60 65 149 65q80 0 117.5 -53t37.5 -129q0 -134 -88.5 -226t-219.5 -92zM192 263l-32 -185q27 -18 84 -18q76 0 132.5 63.5t56.5 166.5q0 56 -22 92.5t-68 36.5q-55 0 -98 -47.5t-53 -108.5z" />
    <glyph glyph-name="c" unicode="c" horiz-adv-x="419" 
d="M392 93l11 -64q-72 -39 -149 -39q-80 0 -128 50.5t-48 143.5q0 131 84 218.5t201 87.5q51 0 94 -15l-26 -75q-35 19 -90 19q-75 0 -125 -63.5t-50 -156.5q0 -67 31 -102.5t89 -35.5q51 0 106 32z" />
    <glyph glyph-name="d" unicode="d" 
d="M581 728l-99 -556q-19 -110 42 -110q30 0 67 17l2 -62q-46 -27 -100 -27q-90 0 -98 89q-78 -89 -177 -89q-68 0 -105 47t-37 128q0 133 82 229t215 96q47 0 83 -12l44 250h81zM409 217l33 178q-38 23 -95 23q-82 0 -131.5 -67t-49.5 -166q0 -123 77 -123q50 0 103 47
t63 108z" />
    <glyph glyph-name="e" unicode="e" horiz-adv-x="473" 
d="M410 94l13 -59q-28 -17 -74.5 -31t-93.5 -14q-85 0 -131 49t-46 141q0 124 74 217t187 93q70 0 109.5 -41.5t39.5 -100.5q0 -66 -49.5 -116t-140.5 -50q-68 0 -131 33q-3 -17 -3 -34q0 -56 28 -89.5t82 -33.5q66 0 136 36zM181 277q57 -30 116 -30q56 0 82 28t26 66
q0 36 -22.5 58.5t-60.5 22.5q-53 0 -89.5 -42t-51.5 -103z" />
    <glyph glyph-name="f" unicode="f" horiz-adv-x="320" 
d="M100 -38l78 450h-88l11 68h88l12 60q16 88 59 139t130 51q46 0 75 -13l-24 -68q-27 9 -65 9q-42 0 -63 -26t-30 -77l-13 -75h119l-12 -68h-118l-77 -436q-19 -109 -60.5 -157.5t-125.5 -48.5q-29 0 -56 11l22 72q29 -11 55 -11q36 0 54 31.5t29 88.5z" />
    <glyph glyph-name="g" unicode="g" horiz-adv-x="506" 
d="M528 468l-71 -402q-27 -153 -99.5 -224.5t-190.5 -71.5q-84 0 -127 26l26 77q45 -32 126 -32q77 0 120 53.5t61 158.5l5 27q-60 -71 -158 -71q-68 0 -106 42.5t-38 117.5q0 143 88 232t223 89q72 0 141 -22zM409 252l26 150q-25 17 -73 17q-95 0 -145 -68t-50 -160
q0 -54 21.5 -82.5t61.5 -28.5q59 0 102 47.5t57 124.5z" />
    <glyph glyph-name="h" unicode="h" horiz-adv-x="579" 
d="M588 79l2 -62q-44 -27 -100 -27q-60 0 -84.5 42.5t-9.5 123.5l23 128q12 67 -4 100.5t-67 33.5q-56 0 -100.5 -51.5t-57.5 -122.5l-44 -244h-81l130 730h81l-56 -315q26 32 68 53.5t88 21.5q160 0 126 -186l-23 -132q-11 -51 -3 -80.5t43 -29.5q27 0 69 17z" />
    <glyph glyph-name="i" unicode="i" horiz-adv-x="277" 
d="M228 480l-55 -308q-11 -45 -1.5 -77.5t44.5 -32.5q30 0 67 15l2 -60q-46 -27 -100 -27q-124 0 -95 166l58 324h80zM268 636q0 -28 -18 -46t-45 -18q-21 0 -33.5 12t-12.5 33q0 27 18.5 45.5t45.5 18.5q22 0 33.5 -12.5t11.5 -32.5z" />
    <glyph glyph-name="j" unicode="j" horiz-adv-x="207" 
d="M-23 -154q36 0 54 30t29 86l90 518h81l-89 -504q-18 -104 -60.5 -155t-125.5 -51q-29 0 -56 11l22 77q32 -12 55 -12zM272 636q0 -28 -18.5 -46t-46.5 -18q-20 0 -32.5 12t-12.5 33q0 27 18.5 45.5t46.5 18.5q22 0 33.5 -12.5t11.5 -32.5z" />
    <glyph glyph-name="k" unicode="k" horiz-adv-x="446" 
d="M190 246l-44 -246h-81l130 730h79l-78 -444l228 194h101l-247 -210l168 -270h-104z" />
    <glyph glyph-name="l" unicode="l" horiz-adv-x="271" 
d="M265 730l-98 -558q-19 -111 42 -111q31 0 68 15l1 -59q-44 -27 -99 -27q-124 0 -95 166l101 574h80z" />
    <glyph glyph-name="m" unicode="m" horiz-adv-x="841" 
d="M764 299l-22 -127q-11 -45 -3 -78t44 -33q24 0 67 17l2 -61q-44 -27 -101 -27q-122 0 -93 166l21 122q15 62 3 101.5t-62 39.5q-51 0 -93 -46t-52 -106l-47 -267h-80l51 290q21 129 -62 129q-50 0 -92 -45t-52 -106l-48 -268h-81l85 480h81l-11 -63q28 35 69.5 54
t78.5 19q105 0 115 -85q67 85 168 85q34 0 59 -9t37 -26.5t19 -35t6.5 -43t-2 -40.5t-5.5 -37z" />
    <glyph glyph-name="n" unicode="n" horiz-adv-x="577" 
d="M394 156l22 128q14 72 -2 103.5t-66 31.5q-54 0 -98.5 -44.5t-59.5 -130.5l-44 -244h-81l85 480h80l-11 -65q28 36 71 55.5t86 19.5q80 0 110.5 -45t13.5 -142l-23 -131q-19 -111 42 -111q32 0 67 15l2 -59q-44 -27 -100 -27q-123 0 -94 166z" />
    <glyph glyph-name="o" unicode="o" horiz-adv-x="522" 
d="M529 293q0 -131 -81.5 -217t-194.5 -86q-79 0 -127 50t-48 142q0 128 78.5 218t199.5 90q83 0 128 -55.5t45 -141.5zM441 282q0 63 -27.5 100t-84.5 37q-71 0 -116.5 -65.5t-45.5 -156.5q0 -136 114 -136q70 0 115 66t45 155z" />
    <glyph glyph-name="p" unicode="p" horiz-adv-x="512" 
d="M146 -2l-40 -228h-81l125 710h82l-12 -63q61 73 157 73q70 0 107 -49t37 -129q0 -143 -88 -232.5t-214 -89.5q-35 0 -73 8zM193 259l-33 -182q34 -16 85 -16q81 0 133 64.5t52 161.5q0 57 -22 94.5t-64 37.5q-58 0 -99.5 -47.5t-51.5 -112.5z" />
    <glyph glyph-name="q" unicode="q" horiz-adv-x="516" 
d="M533 469l-123 -699h-81l51 291q-55 -71 -154 -71q-74 0 -112 52.5t-38 130.5q0 147 92 232t226 85q68 0 139 -21zM418 277l23 127q-39 15 -73 15q-104 0 -154 -65.5t-50 -165.5q0 -56 23 -91.5t71 -35.5q65 0 104.5 62.5t55.5 153.5z" />
    <glyph glyph-name="r" unicode="r" horiz-adv-x="329" 
d="M415 481l-29 -84q-24 13 -53 13q-112 0 -147 -178l-40 -232h-81l85 480h80l-11 -64q23 37 62 55.5t80 18.5q33 0 54 -9z" />
    <glyph glyph-name="s" unicode="s" horiz-adv-x="396" 
d="M190 353q0 -24 30.5 -42.5t67.5 -31t67.5 -42t30.5 -72.5q0 -81 -62.5 -128t-149.5 -47q-76 0 -129 28l29 78q50 -35 123 -35q40 0 70.5 21t30.5 56q0 23 -20.5 40.5t-49 29.5t-57.5 26t-49.5 38t-20.5 57q0 70 58.5 115.5t139.5 45.5q71 0 115 -23l-26 -73
q-52 25 -111 25q-37 0 -62 -18t-25 -48z" />
    <glyph glyph-name="s" unicode="&#xe004;" horiz-adv-x="396" 
d="M190 353q0 -24 30.5 -42.5t67.5 -31t67.5 -42t30.5 -72.5q0 -81 -62.5 -128t-149.5 -47q-76 0 -129 28l29 78q50 -35 123 -35q40 0 70.5 21t30.5 56q0 23 -20.5 40.5t-49 29.5t-57.5 26t-49.5 38t-20.5 57q0 70 58.5 115.5t139.5 45.5q71 0 115 -23l-26 -73
q-52 25 -111 25q-37 0 -62 -18t-25 -48z" />
    <glyph glyph-name="t" unicode="t" horiz-adv-x="327" 
d="M258 480h129l-13 -68h-129l-41 -240q-20 -111 43 -111q29 0 67 15l2 -59q-46 -27 -101 -27q-124 0 -95 166l46 256h-82l11 68h83l22 125l83 18z" />
    <glyph glyph-name="u" unicode="u" horiz-adv-x="576" 
d="M583 78l3 -61q-46 -27 -104 -27q-48 0 -72.5 26t-26.5 71q-23 -41 -74 -69t-105 -28q-58 0 -89 30t-31 83q0 26 63 377h79q-58 -319 -58 -352q0 -36 14 -52t51 -16q68 0 113 59.5t62 154.5l36 206h81q-59 -342 -59 -363q0 -56 48 -56q28 0 69 17z" />
    <glyph glyph-name="v" unicode="v" horiz-adv-x="461" 
d="M256 110l204 370h80l-271 -480h-73l-107 480h89z" />
    <glyph glyph-name="w" unicode="w" horiz-adv-x="708" 
d="M519 130l186 350h80l-264 -480h-59l-54 317l-173 -317h-59l-82 480h85l59 -350l191 350h35z" />
    <glyph glyph-name="x" unicode="x" horiz-adv-x="440" 
d="M345 0l-95 192l-161 -192h-90l219 254l-113 226h97l79 -162l134 162h90l-191 -225l128 -255h-97z" />
    <glyph glyph-name="y" unicode="y" horiz-adv-x="508" 
d="M366 37l8 38q-25 -39 -70.5 -62t-100.5 -23q-72 0 -100 41t-12 133l55 316h81l-54 -300q-11 -65 2.5 -92.5t57.5 -27.5q66 0 113 62t62 152l37 206h80l-71 -414q-29 -162 -99.5 -229t-191.5 -67q-83 0 -127 26l26 77q45 -32 126 -32q143 0 178 196z" />
    <glyph glyph-name="y" unicode="&#xe006;" horiz-adv-x="508" 
d="M366 37l8 38q-25 -39 -70.5 -62t-100.5 -23q-72 0 -100 41t-12 133l55 316h81l-54 -300q-11 -65 2.5 -92.5t57.5 -27.5q66 0 113 62t62 152l37 206h80l-71 -414q-29 -162 -99.5 -229t-191.5 -67q-83 0 -127 26l26 77q45 -32 126 -32q143 0 178 196z" />
    <glyph glyph-name="z" unicode="z" horiz-adv-x="398" 
d="M309 414h-202l12 66h319v-15l-281 -399h225l-12 -66h-344l-1 15z" />
    <glyph glyph-name="braceleft" unicode="{" horiz-adv-x="352" 
d="M251 156l-25 -134q-3 -20 -3 -35.5t2 -26t8 -19t10.5 -13t13.5 -8t14 -4.5t14 -3l-21 -58q-142 21 -116 176l22 120q12 71 3 98.5t-50 53.5l6 34q55 28 71.5 55.5t29.5 96.5l20 120q26 151 178 176l1 -58q-47 -7 -68 -35t-31 -84l-21 -124q-11 -61 -32 -96t-71 -68
q37 -32 46.5 -67t-1.5 -97z" />
    <glyph glyph-name="bar" unicode="|" horiz-adv-x="278" 
d="M317 779l-168 -949h-80l169 949h79z" />
    <glyph glyph-name="braceright" unicode="}" horiz-adv-x="352" 
d="M214 484l24 134q4 20 4 35.5t-2.5 26t-8 19t-10 13t-13.5 8t-14 4.5t-14 3l21 58q143 -21 116 -176l-21 -120q-12 -71 -3.5 -98.5t50.5 -53.5l-6 -34q-55 -28 -72 -55.5t-29 -96.5l-21 -120q-13 -76 -55.5 -119.5t-122.5 -56.5l-1 58q46 7 67.5 35.5t31.5 83.5l21 124
q11 60 32 95.5t71 68.5q-37 32 -46.5 67t1.5 97z" />
    <glyph glyph-name="asciitilde" unicode="~" horiz-adv-x="585" 
d="M166 218h-64q11 63 51 103.5t91 40.5q32 0 72 -24t77 -47.5t60 -23.5q22 0 40 20.5t25 56.5l1 4h62q-17 -77 -54.5 -111.5t-83.5 -34.5q-35 0 -77 23.5t-78 47.5t-56 24q-23 0 -41 -19.5t-25 -59.5z" />
    <glyph glyph-name="exclamdown" unicode="&#xa1;" horiz-adv-x="283" 
d="M224 321l-76 -551h-98l121 551h53zM161 433q0 27 21 47t48 20q21 0 35 -15t14 -36q0 -27 -21.5 -47.5t-48.5 -20.5q-21 0 -34.5 15t-13.5 37z" />
    <glyph glyph-name="cent" unicode="&#xa2;" horiz-adv-x="461" 
d="M453 212l12 -64q-65 -32 -137 -38l-18 -110h-71l19 112q-73 11 -115.5 62t-42.5 135q0 111 69.5 192t175.5 102l21 117h71l-20 -111q54 -2 104 -16l-26 -75q-37 16 -91 19l-63 -357q59 3 112 32zM187 323q0 -107 84 -135l61 342q-65 -17 -105 -74t-40 -133z" />
    <glyph glyph-name="sterling" unicode="&#xa3;" horiz-adv-x="559" 
d="M472 340h-163q-3 -49 -9 -91q-19 -104 -75 -181h280l-11 -68h-379l4 46q71 73 91 187q6 34 10 107h-103l12 67h95q4 51 10 78q20 121 84.5 183t186.5 62q71 0 115 -21l-28 -71q-52 21 -114 21q-73 0 -106.5 -37.5t-49.5 -122.5q-7 -37 -10 -92h172z" />
    <glyph glyph-name="currency" unicode="&#xa4;" horiz-adv-x="575" 
d="M58 97l94 96q-19 35 -19 84q0 100 68 170l-64 100l81 54l49 -106q50 25 112 25q64 0 106 -25l86 106l62 -54q-65 -64 -100 -100q19 -36 19 -83q0 -103 -63 -168l64 -99l-80 -54l-50 107q-53 -24 -117 -24t-104 20l-83 -103zM217 297q0 -51 28 -76t76 -25q67 0 106.5 38
t39.5 112q0 45 -25.5 74t-78.5 29q-75 0 -110.5 -43.5t-35.5 -108.5z" />
    <glyph glyph-name="yen" unicode="&#xa5;" horiz-adv-x="561" 
d="M87 347l13 72h154l-111 301h100l109 -309l225 309h90l-222 -301h159l-12 -72h-200l-11 -17l-16 -87h208l-13 -71h-208l-30 -172h-86l29 172h-209l12 71h210l13 71l-12 33h-192z" />
    <glyph glyph-name="brokenbar" unicode="&#xa6;" horiz-adv-x="277" 
d="M59 -230l66 380h81l-67 -380h-80zM160 350l68 380h80l-67 -380h-81z" />
    <glyph glyph-name="section" unicode="&#xa7;" horiz-adv-x="467" 
d="M34 -71l28 69q45 -31 131 -31q60 0 102 31t42 74q0 17 -5 28t-24 23.5t-34.5 20t-56.5 25.5q-63 27 -91.5 56.5t-28.5 73.5q0 69 47.5 114.5t106.5 52.5q-31 8 -58 36t-27 74q0 80 70 127.5t152 47.5t135 -25l-24 -64q-39 21 -111 21q-57 0 -97.5 -20.5t-40.5 -63.5
q0 -31 27.5 -50t94.5 -45q125 -49 125 -136q0 -11 -5.5 -30t-19 -47t-44 -53t-72.5 -36q70 -30 70 -105q0 -66 -38 -112t-93 -65t-119 -19q-70 0 -142 28zM297 440q-13 -2 -27 -7.5t-35.5 -18t-35 -35.5t-13.5 -54q0 -21 10 -37t30.5 -27.5t37 -18t45.5 -15.5
q104 35 104 114t-116 99z" />
    <glyph glyph-name="dieresis" unicode="&#xa8;" horiz-adv-x="344" 
d="M247 641q0 -27 -17 -44.5t-43 -17.5q-19 0 -31 11.5t-12 32.5q0 26 17.5 43t43.5 17q42 0 42 -42zM424 641q0 -27 -17.5 -44.5t-43.5 -17.5q-19 0 -31 11.5t-12 32.5q0 26 17.5 43t43.5 17q43 0 43 -42z" />
    <glyph glyph-name="copyright" unicode="&#xa9;" horiz-adv-x="816" 
d="M567 245l7 -62q-62 -30 -132 -30q-73 0 -117 41t-44 117q0 105 73 176t180 71q48 0 89 -17l-29 -65q-33 17 -81 17q-68 0 -107.5 -49.5t-39.5 -119.5q0 -52 27 -80t78 -28q44 0 96 29zM835 418q0 -181 -127 -309.5t-303 -128.5q-132 0 -215 84t-83 224q0 91 35 173.5
t93.5 141t137.5 92.5t164 34q137 0 217.5 -87.5t80.5 -223.5zM768 406q0 113 -66.5 185t-176.5 72q-150 0 -250.5 -109t-100.5 -251q0 -117 68.5 -186t173.5 -69q145 0 248.5 102t103.5 256z" />
    <glyph glyph-name="ordfeminine" unicode="&#xaa;" horiz-adv-x="487" 
d="M499 701l-37 -215q-8 -32 -1.5 -55.5t31.5 -23.5q19 0 52 13l1 -58q-41 -22 -86 -22q-74 0 -80 69q-56 -69 -132 -69q-54 0 -83 36.5t-29 100.5q0 108 67 181t166 73q70 0 131 -30zM389 520l23 131q-27 14 -61 14q-57 0 -94 -48t-37 -123q0 -87 54 -87q34 0 70.5 34.5
t44.5 78.5z" />
    <glyph glyph-name="guillemotleft" unicode="&#xab;" horiz-adv-x="434" 
d="M178 280l58 -170l-63 -24l-87 194l156 198l54 -24zM353 280l54 -170l-63 -24l-82 194l151 198l55 -24z" />
    <glyph glyph-name="logicalnot" unicode="&#xac;" horiz-adv-x="558" 
d="M527 84h-78l34 188h-390l12 71h467z" />
    <glyph glyph-name="uni00AD" unicode="&#xad;" horiz-adv-x="351" 
d="M96 249l13 72h247l-12 -72h-248z" />
    <glyph glyph-name="registered" unicode="&#xae;" horiz-adv-x="664" 
d="M711 586q0 -141 -99.5 -241t-237.5 -100q-105 0 -169.5 67t-64.5 175q0 142 100 243.5t237 101.5q107 0 170.5 -70.5t63.5 -175.5zM650 575q0 84 -50 138t-134 54q-111 0 -187 -80t-76 -187q0 -87 51.5 -139t130.5 -52q109 0 187 76.5t78 189.5zM531 382h-71l-11 81
q-3 26 -13.5 37t-38.5 11h-19l-23 -129h-69l55 310q47 9 97 9q116 0 116 -68q0 -32 -24 -56t-56 -33q23 -4 32 -18t11 -43zM401 644l-14 -78h23q27 0 47.5 13.5t20.5 36.5q0 30 -49 30q-12 0 -28 -2z" />
    <glyph glyph-name="macron" unicode="&#xaf;" horiz-adv-x="324" 
d="M139 597l10 63h250l-10 -63h-250z" />
    <glyph glyph-name="degree" unicode="&#xb0;" horiz-adv-x="360" 
d="M423 613q0 -70 -49.5 -116t-113.5 -46q-51 0 -83 33t-32 84q0 65 50.5 113t113.5 48q52 0 83 -32.5t31 -83.5zM355 604q0 28 -15.5 44t-41.5 16q-33 0 -59 -24t-26 -64q0 -27 15.5 -43.5t42.5 -16.5q34 0 59 23t25 65z" />
    <glyph glyph-name="plusminus" unicode="&#xb1;" horiz-adv-x="560" 
d="M272 150l35 198h-189l12 71h189l36 199h69l-35 -199h189l-12 -71h-189l-35 -198h-70zM57 0l12 71h447l-12 -71h-447z" />
    <glyph glyph-name="twosuperior" unicode="&#xb2;" horiz-adv-x="329" 
d="M161 645l-3 58q59 22 108 22q119 0 119 -90q0 -103 -189 -233h163l-10 -60h-251l11 64q36 26 56 42t59 49.5t59 63.5t20 55q0 48 -57 48q-38 0 -85 -19z" />
    <glyph glyph-name="threesuperior" unicode="&#xb3;" horiz-adv-x="328" 
d="M192 509h-22l9 58h30q30 0 61 18t31 45q0 34 -56 34q-31 0 -82 -17l3 60q47 18 98 18q120 0 120 -78q0 -35 -26 -62.5t-60 -36.5q33 -6 51 -26t18 -49q0 -58 -52.5 -97t-127.5 -39q-49 0 -93 14l26 62q35 -15 85 -15q34 0 57 17.5t23 42.5q0 51 -93 51z" />
    <glyph glyph-name="acute" unicode="&#xb4;" horiz-adv-x="304" 
d="M232 547l-57 21l136 162l72 -34z" />
    <glyph glyph-name="uni00B5" unicode="&#xb5;" horiz-adv-x="569" 
d="M402 275l36 205h81l-54 -308q-11 -45 -2 -78t45 -33q29 0 67 15l2 -59q-46 -27 -101 -27q-48 0 -73 28t-27 76q-19 -45 -66.5 -75t-98.5 -30q-49 0 -82 26q-1 -7 -5.5 -39.5t-9.5 -66.5t-9 -58l-14 -71h-75l124 700h80l-53 -300q-11 -65 2.5 -92.5t57.5 -27.5
q68 0 113 59.5t62 155.5z" />
    <glyph glyph-name="paragraph" unicode="&#xb6;" horiz-adv-x="556" 
d="M604 720l-146 -826h-65l133 763h-102l-135 -763h-65l80 457q-57 8 -94.5 47t-37.5 104q0 104 67 161t191 57h174z" />
    <glyph glyph-name="periodcentered" unicode="&#xb7;" horiz-adv-x="284" 
d="M253 298q0 -26 -21.5 -46.5t-48.5 -20.5q-21 0 -35 14.5t-14 36.5q0 27 21.5 47t48.5 20q21 0 35 -14.5t14 -36.5z" />
    <glyph glyph-name="cedilla" unicode="&#xb8;" horiz-adv-x="592" 
d="M243 -73l64 83h60l-40 -53q23 -4 35.5 -19.5t12.5 -37.5q0 -42 -34.5 -68t-86.5 -26q-28 0 -55 12l25 46q23 -7 36 -7q14 0 26.5 8.5t12.5 24.5q0 29 -56 37z" />
    <glyph glyph-name="onesuperior" unicode="&#xb9;" horiz-adv-x="258" 
d="M253 342h-76l54 305l-87 -15l3 59l158 31h15z" />
    <glyph glyph-name="ordmasculine" unicode="&#xba;" horiz-adv-x="440" 
d="M494 577q0 -103 -64 -170t-155 -67q-63 0 -101.5 38.5t-38.5 111.5q0 101 61.5 170.5t158.5 69.5q67 0 103 -43t36 -110zM410 567q0 96 -78 96q-49 0 -80.5 -46.5t-31.5 -111.5q0 -98 77 -98q51 0 82 47.5t31 112.5z" />
    <glyph glyph-name="guillemotright" unicode="&#xbb;" horiz-adv-x="434" 
d="M357 284l-59 170l63 24l86 -194l-155 -198l-54 24zM181 284l-53 170l61 24l84 -194l-153 -198l-53 24z" />
    <glyph glyph-name="onequarter" unicode="&#xbc;" horiz-adv-x="721" 
d="M138 -54l-53 33l573 788l54 -31zM234 342h-76l54 305l-87 -15l3 59l158 31h15zM690 0h-75l17 100h-164l2 64l201 214h87l-39 -219h56l-9 -59h-58zM537 159h105l25 138z" />
    <glyph glyph-name="onehalf" unicode="&#xbd;" horiz-adv-x="747" 
d="M138 -54l-53 33l573 788l54 -31zM234 342h-76l54 305l-87 -15l3 59l158 31h15zM569 303l-3 58q59 22 108 22q119 0 119 -90q0 -103 -189 -233h163l-10 -60h-251l11 64q36 26 56 42t59 49.5t59 63.5t20 55q0 48 -57 48q-38 0 -85 -19z" />
    <glyph glyph-name="threequarters" unicode="&#xbe;" horiz-adv-x="769" 
d="M186 -54l-53 33l573 788l54 -31zM738 0h-75l17 100h-164l2 64l201 214h87l-39 -219h56l-9 -59h-58zM585 159h105l25 138zM186 509h-22l9 58h30q30 0 61 18t31 45q0 34 -56 34q-31 0 -82 -17l3 60q47 18 98 18q120 0 120 -78q0 -35 -26 -62.5t-60 -36.5q33 -6 51 -26
t18 -49q0 -58 -52.5 -97t-127.5 -39q-49 0 -93 14l26 62q35 -15 85 -15q34 0 57 17.5t23 42.5q0 51 -93 51z" />
    <glyph glyph-name="questiondown" unicode="&#xbf;" horiz-adv-x="527" 
d="M345 -137l-1 -76q-73 -27 -148 -27q-85 0 -131 36t-46 99q0 46 17 85.5t42.5 66t56.5 54.5t59 52t51 59t30 75l3 24h70l-4 -39q-8 -45 -35 -85.5t-59 -69.5t-63.5 -58t-52.5 -64.5t-21 -76.5q0 -82 106 -82q54 0 126 27zM273 433q0 27 21.5 47t48.5 20q21 0 34 -15
t13 -36q0 -27 -21 -47.5t-48 -20.5q-21 0 -34.5 15t-13.5 37z" />
    <glyph glyph-name="Agrave" unicode="&#xc0;" horiz-adv-x="649" 
d="M543 0l-47 249h-261l-137 -249h-85l408 720h67l149 -720h-94zM428 596l-150 -271h202zM516 820l-43 -37l-152 109l66 55z" />
    <glyph glyph-name="Aacute" unicode="&#xc1;" horiz-adv-x="649" 
d="M543 0l-47 249h-261l-137 -249h-85l408 720h67l149 -720h-94zM428 596l-150 -271h202zM461 779l-35 41l174 127l50 -58z" />
    <glyph glyph-name="Acircumflex" unicode="&#xc2;" horiz-adv-x="649" 
d="M543 0l-47 249h-261l-137 -249h-85l408 720h67l149 -720h-94zM428 596l-150 -271h202zM581 781l-99 77l-130 -77l-24 49l173 113l124 -113z" />
    <glyph glyph-name="Atilde" unicode="&#xc3;" horiz-adv-x="649" 
d="M543 0l-47 249h-261l-137 -249h-85l408 720h67l149 -720h-94zM428 596l-150 -271h202zM375 810l-54 13q40 100 114 100q29 0 62 -26t46 -26q17 0 37 45l56 -11q-22 -53 -48.5 -78t-65.5 -25q-28 0 -59.5 26.5t-46.5 26.5q-18 0 -41 -45z" />
    <glyph glyph-name="Adieresis" unicode="&#xc4;" horiz-adv-x="649" 
d="M543 0l-47 249h-261l-137 -249h-85l408 720h67l149 -720h-94zM428 596l-150 -271h202zM433 867q0 -25 -20 -44t-44 -19q-20 0 -32.5 13.5t-12.5 33.5q0 25 19.5 43.5t44.5 18.5q19 0 32 -13t13 -33zM638 867q0 -25 -19 -44t-45 -19q-19 0 -31 13.5t-12 33.5q0 25 19 43.5
t43 18.5q20 0 32.5 -13t12.5 -33z" />
    <glyph glyph-name="Aring" unicode="&#xc5;" horiz-adv-x="649" 
d="M543 0l-47 249h-261l-137 -249h-85l408 720h67l149 -720h-94zM428 596l-150 -271h202zM372 844q0 42 36 72.5t88 30.5q43 0 66.5 -19.5t23.5 -50.5q0 -51 -34.5 -78t-89.5 -27q-40 0 -65 19.5t-25 52.5zM437 856q0 -17 9.5 -27.5t25.5 -10.5q22 0 35.5 12.5t13.5 32.5
q0 17 -10 27.5t-26 10.5q-21 0 -34.5 -12t-13.5 -33z" />
    <glyph glyph-name="AE" unicode="&#xc6;" horiz-adv-x="887" 
d="M670 645l-43 -240h266l-13 -75h-266l-45 -255h279l-14 -75h-365l44 250h-236l-196 -250h-92l581 720h387l-13 -75h-274zM338 325h189l53 307z" />
    <glyph glyph-name="Ccedilla" unicode="&#xc7;" horiz-adv-x="601" 
d="M263 -73l51 68q-95 17 -147.5 92t-52.5 187q0 123 54 227.5t150 166.5t212 62q91 0 142 -32l-29 -76q-60 32 -137 32q-125 0 -210.5 -107.5t-85.5 -248.5q0 -104 48.5 -168t145.5 -64q83 0 157 52l19 -65q-85 -64 -209 -63l-25 -33q23 -4 35.5 -19.5t12.5 -37.5
q0 -42 -34 -68t-87 -26q-27 0 -55 12l26 46q23 -7 36 -7q14 0 26 8.5t12 24.5q0 29 -55 37z" />
    <glyph glyph-name="Egrave" unicode="&#xc8;" horiz-adv-x="535" 
d="M294 645l-43 -240h291l-14 -75h-289l-46 -255h303l-12 -75h-390l127 720h385l-14 -75h-298zM488 820l-43 -37l-152 109l66 55z" />
    <glyph glyph-name="Eacute" unicode="&#xc9;" horiz-adv-x="535" 
d="M294 645l-43 -240h291l-14 -75h-289l-46 -255h303l-12 -75h-390l127 720h385l-14 -75h-298zM414 779l-35 41l174 127l50 -58z" />
    <glyph glyph-name="Ecircumflex" unicode="&#xca;" horiz-adv-x="535" 
d="M294 645l-43 -240h291l-14 -75h-289l-46 -255h303l-12 -75h-390l127 720h385l-14 -75h-298zM543 781l-99 77l-130 -77l-24 49l173 113l124 -113z" />
    <glyph glyph-name="Edieresis" unicode="&#xcb;" horiz-adv-x="535" 
d="M294 645l-43 -240h291l-14 -75h-289l-46 -255h303l-12 -75h-390l127 720h385l-14 -75h-298zM388 867q0 -25 -20 -44t-44 -19q-20 0 -32.5 13.5t-12.5 33.5q0 25 19.5 43.5t44.5 18.5q19 0 32 -13t13 -33zM593 867q0 -25 -19 -44t-45 -19q-19 0 -31 13.5t-12 33.5
q0 25 19 43.5t43 18.5q20 0 32.5 -13t12.5 -33z" />
    <glyph glyph-name="Igrave" unicode="&#xcc;" horiz-adv-x="274" 
d="M308 720l-127 -720h-87l127 720h87zM331 820l-43 -37l-152 109l66 55z" />
    <glyph glyph-name="Iacute" unicode="&#xcd;" horiz-adv-x="274" 
d="M308 720l-127 -720h-87l127 720h87zM248 779l-35 41l174 127l50 -58z" />
    <glyph glyph-name="Icircumflex" unicode="&#xce;" horiz-adv-x="274" 
d="M308 720l-127 -720h-87l127 720h87zM377 781l-99 77l-130 -77l-24 49l173 113l124 -113z" />
    <glyph glyph-name="Idieresis" unicode="&#xcf;" horiz-adv-x="274" 
d="M308 720l-127 -720h-87l127 720h87zM241 867q0 -25 -20 -44t-44 -19q-20 0 -32.5 13.5t-12.5 33.5q0 25 19.5 43.5t44.5 18.5q19 0 32 -13t13 -33zM446 867q0 -25 -19 -44t-45 -19q-19 0 -31 13.5t-12 33.5q0 25 19 43.5t43 18.5q20 0 32.5 -13t12.5 -33z" />
    <glyph glyph-name="Eth" unicode="&#xd0;" horiz-adv-x="700" 
d="M91 332l14 76h98l53 302q87 20 190 20q128 0 200 -78t72 -208q0 -188 -115 -321t-300 -133q-105 0 -170 20l56 322h-98zM330 642l-40 -234h170l-13 -76h-171l-45 -254q31 -12 99 -12q122 0 206.5 101t84.5 252q0 104 -50 169.5t-150 65.5q-26 0 -91 -12z" />
    <glyph glyph-name="Ntilde" unicode="&#xd1;" horiz-adv-x="685" 
d="M506 0l-233 572l-100 -572h-79l127 720h87l231 -569l101 569h78l-127 -720h-85zM397 810l-54 13q40 100 114 100q29 0 62 -26t46 -26q17 0 37 45l56 -11q-22 -53 -48.5 -78t-65.5 -25q-28 0 -59.5 26.5t-46.5 26.5q-18 0 -41 -45z" />
    <glyph glyph-name="Ograve" unicode="&#xd2;" horiz-adv-x="715" 
d="M728 443q0 -84 -27.5 -165.5t-75.5 -145.5t-120 -103t-154 -39q-62 0 -109.5 24.5t-74 66t-39.5 91.5t-13 107q0 191 108.5 321t267.5 130q112 0 174.5 -79t62.5 -208zM633 419q0 97 -42 166t-123 69q-75 0 -136 -58t-91.5 -139t-30.5 -161q0 -100 41.5 -165t123.5 -65
q72 0 132 49.5t93 130t33 173.5zM560 820l-43 -37l-152 109l66 55z" />
    <glyph glyph-name="Oacute" unicode="&#xd3;" horiz-adv-x="715" 
d="M728 443q0 -84 -27.5 -165.5t-75.5 -145.5t-120 -103t-154 -39q-62 0 -109.5 24.5t-74 66t-39.5 91.5t-13 107q0 191 108.5 321t267.5 130q112 0 174.5 -79t62.5 -208zM633 419q0 97 -42 166t-123 69q-75 0 -136 -58t-91.5 -139t-30.5 -161q0 -100 41.5 -165t123.5 -65
q72 0 132 49.5t93 130t33 173.5zM496 779l-35 41l174 127l50 -58z" />
    <glyph glyph-name="Ocircumflex" unicode="&#xd4;" horiz-adv-x="715" 
d="M728 443q0 -84 -27.5 -165.5t-75.5 -145.5t-120 -103t-154 -39q-62 0 -109.5 24.5t-74 66t-39.5 91.5t-13 107q0 191 108.5 321t267.5 130q112 0 174.5 -79t62.5 -208zM633 419q0 97 -42 166t-123 69q-75 0 -136 -58t-91.5 -139t-30.5 -161q0 -100 41.5 -165t123.5 -65
q72 0 132 49.5t93 130t33 173.5zM611 781l-99 77l-130 -77l-24 49l173 113l124 -113z" />
    <glyph glyph-name="Otilde" unicode="&#xd5;" horiz-adv-x="715" 
d="M728 443q0 -84 -27.5 -165.5t-75.5 -145.5t-120 -103t-154 -39q-62 0 -109.5 24.5t-74 66t-39.5 91.5t-13 107q0 191 108.5 321t267.5 130q112 0 174.5 -79t62.5 -208zM633 419q0 97 -42 166t-123 69q-75 0 -136 -58t-91.5 -139t-30.5 -161q0 -100 41.5 -165t123.5 -65
q72 0 132 49.5t93 130t33 173.5zM405 810l-54 13q40 100 114 100q29 0 62 -26t46 -26q17 0 37 45l56 -11q-22 -53 -48.5 -78t-65.5 -25q-28 0 -59.5 26.5t-46.5 26.5q-18 0 -41 -45z" />
    <glyph glyph-name="Odieresis" unicode="&#xd6;" horiz-adv-x="715" 
d="M728 443q0 -84 -27.5 -165.5t-75.5 -145.5t-120 -103t-154 -39q-62 0 -109.5 24.5t-74 66t-39.5 91.5t-13 107q0 191 108.5 321t267.5 130q112 0 174.5 -79t62.5 -208zM633 419q0 97 -42 166t-123 69q-75 0 -136 -58t-91.5 -139t-30.5 -161q0 -100 41.5 -165t123.5 -65
q72 0 132 49.5t93 130t33 173.5zM463 867q0 -25 -20 -44t-44 -19q-20 0 -32.5 13.5t-12.5 33.5q0 25 19.5 43.5t44.5 18.5q19 0 32 -13t13 -33zM668 867q0 -25 -19 -44t-45 -19q-19 0 -31 13.5t-12 33.5q0 25 19 43.5t43 18.5q20 0 32.5 -13t12.5 -33z" />
    <glyph glyph-name="multiply" unicode="&#xd7;" horiz-adv-x="445" 
d="M49 96l167 149l-115 148l59 50l114 -148l166 149l41 -51l-166 -148l114 -149l-58 -49l-114 148l-167 -148z" />
    <glyph glyph-name="Oslash" unicode="&#xd8;" horiz-adv-x="718" 
d="M730 443q0 -84 -27.5 -165.5t-75.5 -145.5t-120 -103t-154 -39q-88 0 -144 43l-74 -91l-54 40l80 99q-45 70 -45 195q0 193 109 323.5t268 130.5q88 0 145 -49l74 93l54 -42l-81 -100q45 -70 45 -189zM634 421q0 73 -18 127q-49 -62 -163 -207t-184 -234q44 -41 107 -41
q111 0 185 106t73 249zM210 290q2 -85 19 -126l349 443q-44 47 -108 47q-75 0 -136.5 -59t-92.5 -141.5t-31 -163.5z" />
    <glyph glyph-name="Ugrave" unicode="&#xd9;" horiz-adv-x="643" 
d="M315 -10q-105 0 -156.5 54.5t-31.5 169.5l89 506h87l-84 -480q-31 -174 120 -174q89 0 136 53t66 157l77 444h78l-85 -478q-21 -122 -98 -187t-198 -65zM516 820l-43 -37l-152 109l66 55z" />
    <glyph glyph-name="Uacute" unicode="&#xda;" horiz-adv-x="643" 
d="M315 -10q-105 0 -156.5 54.5t-31.5 169.5l89 506h87l-84 -480q-31 -174 120 -174q89 0 136 53t66 157l77 444h78l-85 -478q-21 -122 -98 -187t-198 -65zM478 779l-35 41l174 127l50 -58z" />
    <glyph glyph-name="Ucircumflex" unicode="&#xdb;" horiz-adv-x="643" 
d="M315 -10q-105 0 -156.5 54.5t-31.5 169.5l89 506h87l-84 -480q-31 -174 120 -174q89 0 136 53t66 157l77 444h78l-85 -478q-21 -122 -98 -187t-198 -65zM580 781l-99 77l-130 -77l-24 49l173 113l124 -113z" />
    <glyph glyph-name="Udieresis" unicode="&#xdc;" horiz-adv-x="643" 
d="M315 -10q-105 0 -156.5 54.5t-31.5 169.5l89 506h87l-84 -480q-31 -174 120 -174q89 0 136 53t66 157l77 444h78l-85 -478q-21 -122 -98 -187t-198 -65zM431 867q0 -25 -20 -44t-44 -19q-20 0 -32.5 13.5t-12.5 33.5q0 25 19.5 43.5t44.5 18.5q19 0 32 -13t13 -33z
M636 867q0 -25 -19 -44t-45 -19q-19 0 -31 13.5t-12 33.5q0 25 19 43.5t43 18.5q20 0 32.5 -13t12.5 -33z" />
    <glyph glyph-name="Yacute" unicode="&#xdd;" horiz-adv-x="549" 
d="M375 328l-57 -328h-86l55 312l-148 408h100l110 -309l224 309h90zM425 779l-35 41l174 127l50 -58z" />
    <glyph glyph-name="Thorn" unicode="&#xde;" horiz-adv-x="544" 
d="M181 0h-87l127 720h87l-23 -127q72 7 98 7q94 0 147.5 -46.5t53.5 -123.5q0 -88 -50.5 -151.5t-125.5 -91.5t-165 -28h-34zM271 513l-49 -281h47q90 0 155 47.5t65 131.5q0 55 -34 83.5t-96 28.5q-44 0 -88 -10z" />
    <glyph glyph-name="germandbls" unicode="&#xdf;" horiz-adv-x="524" 
d="M249 552l-98 -552h-81l95 538q16 87 70 139.5t147 52.5q57 0 91.5 -35t34.5 -87q0 -36 -13.5 -65.5t-33 -49t-39 -37t-33 -39t-13.5 -44.5q0 -22 14.5 -39t36 -30t42.5 -27.5t35.5 -39.5t14.5 -58q0 -81 -61 -135t-148 -54q-62 0 -89 14l26 70q37 -17 74 -17
q57 0 82 30.5t25 68.5q0 26 -14.5 45.5t-35 32.5t-41.5 26.5t-35.5 36t-14.5 51.5q0 36 13.5 65t32.5 48t38.5 36.5t33 40t13.5 49.5q0 32 -17 53.5t-46 21.5q-41 0 -69.5 -32t-36.5 -78z" />
    <glyph glyph-name="agrave" unicode="&#xe0;" 
d="M531 451l-49 -279q-11 -44 -2.5 -77t44.5 -33q33 0 67 14l2 -59q-46 -27 -100 -27q-90 0 -98 89q-33 -40 -82.5 -64.5t-94.5 -24.5q-68 0 -105 47t-37 128q0 141 85.5 233.5t210.5 92.5q87 0 159 -40zM409 217l33 181q-45 21 -88 21q-82 0 -135 -64.5t-53 -169.5
q0 -123 77 -123q50 0 103 47t63 108zM410 568l-65 -21l-100 149l86 34z" />
    <glyph glyph-name="aacute" unicode="&#xe1;" 
d="M531 451l-49 -279q-11 -44 -2.5 -77t44.5 -33q33 0 67 14l2 -59q-46 -27 -100 -27q-90 0 -98 89q-33 -40 -82.5 -64.5t-94.5 -24.5q-68 0 -105 47t-37 128q0 141 85.5 233.5t210.5 92.5q87 0 159 -40zM409 217l33 181q-45 21 -88 21q-82 0 -135 -64.5t-53 -169.5
q0 -123 77 -123q50 0 103 47t63 108zM378 547l-57 21l136 162l72 -34z" />
    <glyph glyph-name="acircumflex" unicode="&#xe2;" 
d="M531 451l-49 -279q-11 -44 -2.5 -77t44.5 -33q33 0 67 14l2 -59q-46 -27 -100 -27q-90 0 -98 89q-33 -40 -82.5 -64.5t-94.5 -24.5q-68 0 -105 47t-37 128q0 141 85.5 233.5t210.5 92.5q87 0 159 -40zM409 217l33 181q-45 21 -88 21q-82 0 -135 -64.5t-53 -169.5
q0 -123 77 -123q50 0 103 47t63 108zM475 551l-95 86l-128 -86l-26 47l174 130l120 -127z" />
    <glyph glyph-name="atilde" unicode="&#xe3;" 
d="M531 451l-49 -279q-11 -44 -2.5 -77t44.5 -33q33 0 67 14l2 -59q-46 -27 -100 -27q-90 0 -98 89q-33 -40 -82.5 -64.5t-94.5 -24.5q-68 0 -105 47t-37 128q0 141 85.5 233.5t210.5 92.5q87 0 159 -40zM409 217l33 181q-45 21 -88 21q-82 0 -135 -64.5t-53 -169.5
q0 -123 77 -123q50 0 103 47t63 108zM284 578l-55 15q42 104 118 104q29 0 63.5 -28.5t47.5 -28.5q17 0 38 56l56 -13q-24 -60 -50 -86.5t-65 -26.5q-29 0 -61.5 29t-47.5 29q-22 0 -44 -50z" />
    <glyph glyph-name="adieresis" unicode="&#xe4;" 
d="M531 451l-49 -279q-11 -44 -2.5 -77t44.5 -33q33 0 67 14l2 -59q-46 -27 -100 -27q-90 0 -98 89q-33 -40 -82.5 -64.5t-94.5 -24.5q-68 0 -105 47t-37 128q0 141 85.5 233.5t210.5 92.5q87 0 159 -40zM409 217l33 181q-45 21 -88 21q-82 0 -135 -64.5t-53 -169.5
q0 -123 77 -123q50 0 103 47t63 108zM349 641q0 -27 -17 -44.5t-43 -17.5q-19 0 -31 11.5t-12 32.5q0 26 17.5 43t43.5 17q42 0 42 -42zM526 641q0 -27 -17.5 -44.5t-43.5 -17.5q-19 0 -31 11.5t-12 32.5q0 26 17.5 43t43.5 17q43 0 43 -42z" />
    <glyph glyph-name="aring" unicode="&#xe5;" 
d="M531 451l-49 -279q-11 -44 -2.5 -77t44.5 -33q33 0 67 14l2 -59q-46 -27 -100 -27q-90 0 -98 89q-33 -40 -82.5 -64.5t-94.5 -24.5q-68 0 -105 47t-37 128q0 141 85.5 233.5t210.5 92.5q87 0 159 -40zM409 217l33 181q-45 21 -88 21q-82 0 -135 -64.5t-53 -169.5
q0 -123 77 -123q50 0 103 47t63 108zM274 622q0 44 36 75.5t89 31.5q42 0 65 -20.5t23 -52.5q0 -53 -34.5 -81t-90.5 -28q-40 0 -64 20t-24 55zM337 634q0 -17 10.5 -28.5t26.5 -11.5q21 0 34.5 13.5t13.5 35.5q0 16 -9.5 27.5t-24.5 11.5q-22 0 -36.5 -13.5t-14.5 -34.5z
" />
    <glyph glyph-name="ae" unicode="&#xe6;" horiz-adv-x="805" 
d="M743 97l12 -62q-77 -45 -168 -45q-66 0 -111 31t-58 87q-85 -118 -200 -118q-68 0 -105 47t-37 128q0 141 85.5 233.5t210.5 92.5q88 0 163 -46q62 45 144 45q66 0 104 -42t38 -100q0 -66 -50 -116t-141 -50q-72 0 -133 33q-3 -17 -3 -34q0 -55 29 -87t87 -32
q73 0 133 35zM409 217l33 185q-41 20 -88 20q-82 0 -136 -66t-54 -171q0 -56 19.5 -90t59.5 -34q50 0 103 47.5t63 108.5zM513 284q58 -32 107 -32q57 0 86.5 26.5t29.5 62.5q0 32 -22 54.5t-60 22.5q-54 0 -90.5 -38t-50.5 -96z" />
    <glyph glyph-name="ccedilla" unicode="&#xe7;" horiz-adv-x="419" 
d="M163 -73l51 67q-63 12 -99.5 60.5t-36.5 129.5q0 131 84 218.5t201 87.5q51 0 94 -15l-26 -75q-35 19 -90 19q-75 0 -125 -63.5t-50 -156.5q0 -67 31 -102.5t89 -35.5q51 0 106 32l11 -64q-66 -35 -131 -38l-25 -34q23 -4 35.5 -19.5t12.5 -37.5q0 -42 -34.5 -68
t-86.5 -26q-28 0 -56 12l26 46q23 -7 36 -7q14 0 26.5 8.5t12.5 24.5q0 29 -56 37z" />
    <glyph glyph-name="egrave" unicode="&#xe8;" horiz-adv-x="473" 
d="M410 94l13 -59q-28 -17 -74.5 -31t-93.5 -14q-85 0 -131 49t-46 141q0 124 74 217t187 93q70 0 109.5 -41.5t39.5 -100.5q0 -66 -49.5 -116t-140.5 -50q-68 0 -131 33q-3 -17 -3 -34q0 -56 28 -89.5t82 -33.5q66 0 136 36zM181 277q57 -30 116 -30q56 0 82 28t26 66
q0 36 -22.5 58.5t-60.5 22.5q-53 0 -89.5 -42t-51.5 -103zM398 568l-65 -21l-100 149l86 34z" />
    <glyph glyph-name="eacute" unicode="&#xe9;" horiz-adv-x="473" 
d="M410 94l13 -59q-28 -17 -74.5 -31t-93.5 -14q-85 0 -131 49t-46 141q0 124 74 217t187 93q70 0 109.5 -41.5t39.5 -100.5q0 -66 -49.5 -116t-140.5 -50q-68 0 -131 33q-3 -17 -3 -34q0 -56 28 -89.5t82 -33.5q66 0 136 36zM181 277q57 -30 116 -30q56 0 82 28t26 66
q0 36 -22.5 58.5t-60.5 22.5q-53 0 -89.5 -42t-51.5 -103zM361 547l-57 21l136 162l72 -34z" />
    <glyph glyph-name="ecircumflex" unicode="&#xea;" horiz-adv-x="473" 
d="M410 94l13 -59q-28 -17 -74.5 -31t-93.5 -14q-85 0 -131 49t-46 141q0 124 74 217t187 93q70 0 109.5 -41.5t39.5 -100.5q0 -66 -49.5 -116t-140.5 -50q-68 0 -131 33q-3 -17 -3 -34q0 -56 28 -89.5t82 -33.5q66 0 136 36zM181 277q57 -30 116 -30q56 0 82 28t26 66
q0 36 -22.5 58.5t-60.5 22.5q-53 0 -89.5 -42t-51.5 -103zM457 551l-95 86l-128 -86l-26 47l174 130l120 -127z" />
    <glyph glyph-name="edieresis" unicode="&#xeb;" horiz-adv-x="473" 
d="M410 94l13 -59q-28 -17 -74.5 -31t-93.5 -14q-85 0 -131 49t-46 141q0 124 74 217t187 93q70 0 109.5 -41.5t39.5 -100.5q0 -66 -49.5 -116t-140.5 -50q-68 0 -131 33q-3 -17 -3 -34q0 -56 28 -89.5t82 -33.5q66 0 136 36zM181 277q57 -30 116 -30q56 0 82 28t26 66
q0 36 -22.5 58.5t-60.5 22.5q-53 0 -89.5 -42t-51.5 -103zM333 641q0 -27 -17 -44.5t-43 -17.5q-19 0 -31 11.5t-12 32.5q0 26 17.5 43t43.5 17q42 0 42 -42zM510 641q0 -27 -17.5 -44.5t-43.5 -17.5q-19 0 -31 11.5t-12 32.5q0 26 17.5 43t43.5 17q43 0 43 -42z" />
    <glyph glyph-name="igrave" unicode="&#xec;" horiz-adv-x="277" 
d="M249 568l-65 -21l-100 149l86 34zM228 480l-55 -308q-19 -111 43 -111q30 0 67 15l2 -59q-46 -27 -100 -27q-122 0 -95 166l58 324h80z" />
    <glyph glyph-name="iacute" unicode="&#xed;" horiz-adv-x="277" 
d="M219 547l-57 21l136 162l72 -34zM228 480l-55 -308q-19 -111 43 -111q30 0 67 15l2 -59q-46 -27 -100 -27q-122 0 -95 166l58 324h80z" />
    <glyph glyph-name="icircumflex" unicode="&#xee;" horiz-adv-x="277" 
d="M228 480l-55 -308q-19 -111 43 -111q30 0 67 15l2 -59q-46 -27 -100 -27q-122 0 -95 166l58 324h80zM309 551l-95 86l-128 -86l-26 47l174 130l120 -127z" />
    <glyph glyph-name="idieresis" unicode="&#xef;" horiz-adv-x="277" 
d="M178 641q0 -27 -17 -44.5t-43 -17.5q-19 0 -31 11.5t-12 32.5q0 26 17.5 43t43.5 17q42 0 42 -42zM355 641q0 -27 -17.5 -44.5t-43.5 -17.5q-19 0 -31 11.5t-12 32.5q0 26 17.5 43t43.5 17q43 0 43 -42zM228 480l-55 -308q-19 -111 43 -111q30 0 67 15l2 -59
q-46 -27 -100 -27q-122 0 -95 166l58 324h80z" />
    <glyph glyph-name="eth" unicode="&#xf0;" horiz-adv-x="509" 
d="M297 520l-36 46l81 57q-41 34 -103 58l43 49q73 -16 131 -58l104 73l33 -47l-94 -66q81 -94 81 -260q0 -175 -85.5 -278.5t-203.5 -103.5q-77 0 -124 48.5t-47 138.5q0 126 76 214.5t195 88.5q56 0 94 -33q-14 81 -57 134zM274 61q63 0 112.5 69.5t60.5 180.5
q-10 46 -43 72.5t-83 26.5q-67 0 -111.5 -64.5t-44.5 -152.5q0 -132 109 -132z" />
    <glyph glyph-name="ntilde" unicode="&#xf1;" horiz-adv-x="576" 
d="M393 156l22 128q14 72 -2 103.5t-66 31.5q-54 0 -98.5 -44.5t-59.5 -130.5l-44 -244h-81l85 480h80l-11 -65q28 36 71 55.5t86 19.5q80 0 110.5 -45t13.5 -142l-23 -131q-11 -45 -2 -78t44 -33q32 0 67 15l2 -59q-44 -27 -100 -27q-123 0 -94 166zM259 578l-55 15
q42 104 118 104q29 0 63.5 -28.5t47.5 -28.5q17 0 38 56l56 -13q-24 -60 -50 -86.5t-65 -26.5q-29 0 -61.5 29t-47.5 29q-22 0 -44 -50z" />
    <glyph glyph-name="ograve" unicode="&#xf2;" horiz-adv-x="522" 
d="M529 293q0 -131 -81.5 -217t-194.5 -86q-79 0 -127 50t-48 142q0 128 78.5 218t199.5 90q83 0 128 -55.5t45 -141.5zM441 282q0 63 -27.5 100t-84.5 37q-71 0 -116.5 -65.5t-45.5 -156.5q0 -136 114 -136q70 0 115 66t45 155zM427 568l-65 -21l-100 149l86 34z" />
    <glyph glyph-name="oacute" unicode="&#xf3;" horiz-adv-x="522" 
d="M529 293q0 -131 -81.5 -217t-194.5 -86q-79 0 -127 50t-48 142q0 128 78.5 218t199.5 90q83 0 128 -55.5t45 -141.5zM441 282q0 63 -27.5 100t-84.5 37q-71 0 -116.5 -65.5t-45.5 -156.5q0 -136 114 -136q70 0 115 66t45 155zM391 547l-57 21l136 162l72 -34z" />
    <glyph glyph-name="ocircumflex" unicode="&#xf4;" horiz-adv-x="522" 
d="M529 293q0 -131 -81.5 -217t-194.5 -86q-79 0 -127 50t-48 142q0 128 78.5 218t199.5 90q83 0 128 -55.5t45 -141.5zM441 282q0 63 -27.5 100t-84.5 37q-71 0 -116.5 -65.5t-45.5 -156.5q0 -136 114 -136q70 0 115 66t45 155zM475 551l-95 86l-128 -86l-26 47l174 130
l120 -127z" />
    <glyph glyph-name="otilde" unicode="&#xf5;" horiz-adv-x="522" 
d="M529 293q0 -131 -81.5 -217t-194.5 -86q-79 0 -127 50t-48 142q0 128 78.5 218t199.5 90q83 0 128 -55.5t45 -141.5zM441 282q0 63 -27.5 100t-84.5 37q-71 0 -116.5 -65.5t-45.5 -156.5q0 -136 114 -136q70 0 115 66t45 155zM271 578l-55 15q42 104 118 104
q29 0 63.5 -28.5t47.5 -28.5q17 0 38 56l56 -13q-24 -60 -50 -86.5t-65 -26.5q-29 0 -61.5 29t-47.5 29q-22 0 -44 -50z" />
    <glyph glyph-name="odieresis" unicode="&#xf6;" horiz-adv-x="522" 
d="M529 293q0 -131 -81.5 -217t-194.5 -86q-79 0 -127 50t-48 142q0 128 78.5 218t199.5 90q83 0 128 -55.5t45 -141.5zM441 282q0 63 -27.5 100t-84.5 37q-71 0 -116.5 -65.5t-45.5 -156.5q0 -136 114 -136q70 0 115 66t45 155zM345 641q0 -27 -17 -44.5t-43 -17.5
q-19 0 -31 11.5t-12 32.5q0 26 17.5 43t43.5 17q42 0 42 -42zM522 641q0 -27 -17.5 -44.5t-43.5 -17.5q-19 0 -31 11.5t-12 32.5q0 26 17.5 43t43.5 17q43 0 43 -42z" />
    <glyph glyph-name="divide" unicode="&#xf7;" horiz-adv-x="513" 
d="M328 80q0 -27 -21 -47t-48 -20q-21 0 -34.5 14.5t-13.5 35.5q0 27 20.5 47t47.5 20q22 0 35.5 -14t13.5 -36zM60 209l13 71h467l-13 -71h-467zM387 425q0 -28 -20 -48t-47 -20q-21 0 -34.5 14.5t-13.5 35.5q0 27 20.5 47t47.5 20q21 0 34 -14t13 -35z" />
    <glyph glyph-name="oslash" unicode="&#xf8;" horiz-adv-x="522" 
d="M526 544l47 -40l-77 -87q34 -53 34 -124q0 -131 -82.5 -217t-194.5 -86q-63 0 -104 31q-32 -35 -70 -79l-44 36l73 85q-30 49 -30 119q0 128 78 218t200 90q58 0 98 -28zM280 61q71 0 116.5 66.5t44.5 157.5q2 32 -8 59q-20 -23 -90.5 -103t-137.5 -156q27 -24 75 -24z
M328 419q-71 0 -117 -66.5t-46 -158.5q0 -28 7 -56l227 260q-27 21 -71 21z" />
    <glyph glyph-name="ugrave" unicode="&#xf9;" horiz-adv-x="576" 
d="M583 78l3 -61q-46 -27 -104 -27q-48 0 -72.5 26t-26.5 71q-23 -41 -74 -69t-105 -28q-58 0 -89 30t-31 83q0 26 63 377h79q-58 -319 -58 -352q0 -36 14 -52t51 -16q68 0 113 59.5t62 154.5l36 206h81q-59 -342 -59 -363q0 -56 48 -56q28 0 69 17zM401 568l-65 -21
l-100 149l86 34z" />
    <glyph glyph-name="uacute" unicode="&#xfa;" horiz-adv-x="576" 
d="M583 78l3 -61q-46 -27 -104 -27q-48 0 -72.5 26t-26.5 71q-23 -41 -74 -69t-105 -28q-58 0 -89 30t-31 83q0 26 63 377h79q-58 -319 -58 -352q0 -36 14 -52t51 -16q68 0 113 59.5t62 154.5l36 206h81q-59 -342 -59 -363q0 -56 48 -56q28 0 69 17zM369 547l-57 21l136 162
l72 -34z" />
    <glyph glyph-name="ucircumflex" unicode="&#xfb;" horiz-adv-x="576" 
d="M583 78l3 -61q-46 -27 -104 -27q-48 0 -72.5 26t-26.5 71q-23 -41 -74 -69t-105 -28q-58 0 -89 30t-31 83q0 26 63 377h79q-58 -319 -58 -352q0 -36 14 -52t51 -16q68 0 113 59.5t62 154.5l36 206h81q-59 -342 -59 -363q0 -56 48 -56q28 0 69 17zM464 551l-95 86
l-128 -86l-26 47l174 130l120 -127z" />
    <glyph glyph-name="udieresis" unicode="&#xfc;" horiz-adv-x="576" 
d="M583 78l3 -61q-46 -27 -104 -27q-48 0 -72.5 26t-26.5 71q-23 -41 -74 -69t-105 -28q-58 0 -89 30t-31 83q0 26 63 377h79q-58 -319 -58 -352q0 -36 14 -52t51 -16q68 0 113 59.5t62 154.5l36 206h81q-59 -342 -59 -363q0 -56 48 -56q28 0 69 17zM337 641
q0 -27 -17 -44.5t-43 -17.5q-19 0 -31 11.5t-12 32.5q0 26 17.5 43t43.5 17q42 0 42 -42zM514 641q0 -27 -17.5 -44.5t-43.5 -17.5q-19 0 -31 11.5t-12 32.5q0 26 17.5 43t43.5 17q43 0 43 -42z" />
    <glyph glyph-name="yacute" unicode="&#xfd;" horiz-adv-x="508" 
d="M366 37l8 38q-25 -39 -70.5 -62t-100.5 -23q-72 0 -100 41t-12 133l55 316h81l-54 -300q-11 -65 2.5 -92.5t57.5 -27.5q66 0 113 62t62 152l37 206h80l-71 -414q-29 -162 -99.5 -229t-191.5 -67q-83 0 -127 26l26 77q45 -32 126 -32q143 0 178 196zM357 547l-57 21
l136 162l72 -34z" />
    <glyph glyph-name="thorn" unicode="&#xfe;" horiz-adv-x="509" 
d="M145 -2l-40 -228h-81l169 960h81l-55 -313q59 73 156 73q70 0 107 -49t37 -129q0 -143 -87.5 -232.5t-213.5 -89.5q-35 0 -73 8zM192 259l-33 -182q32 -16 85 -16q81 0 133 64.5t52 161.5q0 57 -22 94.5t-64 37.5q-59 0 -100 -47t-51 -113z" />
    <glyph glyph-name="ydieresis" unicode="&#xff;" horiz-adv-x="508" 
d="M366 37l8 38q-25 -39 -70.5 -62t-100.5 -23q-72 0 -100 41t-12 133l55 316h81l-54 -300q-11 -65 2.5 -92.5t57.5 -27.5q66 0 113 62t62 152l37 206h80l-71 -414q-29 -162 -99.5 -229t-191.5 -67q-83 0 -127 26l26 77q45 -32 126 -32q143 0 178 196zM316 641
q0 -27 -17 -44.5t-43 -17.5q-19 0 -31 11.5t-12 32.5q0 26 17.5 43t43.5 17q42 0 42 -42zM493 641q0 -27 -17.5 -44.5t-43.5 -17.5q-19 0 -31 11.5t-12 32.5q0 26 17.5 43t43.5 17q43 0 43 -42z" />
    <glyph glyph-name="OE" unicode="&#x152;" horiz-adv-x="890" 
d="M660 645l-43 -240h279l-13 -75h-280l-45 -255h294l-13 -75h-368q-51 -10 -113 -10q-83 0 -140.5 44t-81 108.5t-23.5 142.5q0 188 113.5 316.5t272.5 128.5q56 0 104 -10h358l-13 -75h-288zM381 66q45 0 92 11l98 563q-40 14 -96 14q-74 0 -137.5 -56.5t-97 -137
t-33.5 -158.5q0 -101 45 -168.5t129 -67.5z" />
    <glyph glyph-name="oe" unicode="&#x153;" horiz-adv-x="835" 
d="M773 97l13 -62q-80 -45 -168 -45q-119 0 -160 92q-82 -92 -199 -92q-79 0 -127.5 50t-48.5 142q0 128 79 218t200 90q107 0 151 -91q78 91 196 91q66 0 104 -42t38 -100q0 -66 -50 -116t-141 -50q-70 0 -133 33q-3 -17 -3 -34q0 -55 29.5 -87t86.5 -32q73 0 133 35z
M446 282q0 137 -111 137q-70 0 -116.5 -66t-46.5 -156q0 -136 115 -136q70 0 114.5 66t44.5 155zM543 284q58 -32 108 -32q56 0 86 26.5t30 62.5q0 32 -22.5 54.5t-60.5 22.5q-53 0 -90 -37.5t-51 -96.5z" />
    <glyph glyph-name="Ydieresis" unicode="&#x178;" horiz-adv-x="549" 
d="M375 328l-57 -328h-86l55 312l-148 408h100l110 -309l224 309h90zM379 867q0 -25 -20 -44t-44 -19q-20 0 -32.5 13.5t-12.5 33.5q0 25 19.5 43.5t44.5 18.5q19 0 32 -13t13 -33zM584 867q0 -25 -19 -44t-45 -19q-19 0 -31 13.5t-12 33.5q0 25 19 43.5t43 18.5
q20 0 32.5 -13t12.5 -33z" />
    <glyph glyph-name="tilde" unicode="&#x2dc;" horiz-adv-x="386" 
d="M203 578l-55 15q42 104 118 104q29 0 63.5 -28.5t47.5 -28.5q17 0 38 56l56 -13q-24 -60 -50 -86.5t-65 -26.5q-29 0 -61.5 29t-47.5 29q-22 0 -44 -50z" />
    <glyph glyph-name="endash" unicode="&#x2013;" horiz-adv-x="587" 
d="M98 229l12 72h474l-13 -72h-473z" />
    <glyph glyph-name="emdash" unicode="&#x2014;" horiz-adv-x="863" 
d="M64 229l13 72h817l-13 -72h-817z" />
    <glyph glyph-name="quoteleft" unicode="&#x2018;" horiz-adv-x="233" 
d="M193 475l-38 249h90l11 -249h-63z" />
    <glyph glyph-name="quoteright" unicode="&#x2019;" horiz-adv-x="234" 
d="M334 724l-126 -249h-63l99 249h90z" />
    <glyph glyph-name="quotedblleft" unicode="&#x201c;" horiz-adv-x="396" 
d="M193 475l-38 249h90l11 -249h-63zM356 475l-38 249h90l11 -249h-63z" />
    <glyph glyph-name="quotedblright" unicode="&#x201d;" horiz-adv-x="397" 
d="M334 724l-126 -249h-63l99 249h90zM496 724l-125 -249h-62l97 249h90z" />
    <glyph glyph-name="quotedblbase" unicode="&#x201e;" horiz-adv-x="429" 
d="M386 99l-126 -249h-63l99 249h90zM223 98l-126 -247h-63l98 247h91z" />
    <glyph glyph-name="bullet" unicode="&#x2022;" horiz-adv-x="435" 
d="M433 388q0 -71 -54 -124.5t-124 -53.5q-53 0 -87.5 37.5t-34.5 93.5q0 72 54 125.5t123 53.5q54 0 88.5 -38t34.5 -94z" />
    <glyph glyph-name="ellipsis" unicode="&#x2026;" horiz-adv-x="835" 
d="M210 58q0 -27 -21.5 -47.5t-48.5 -20.5q-21 0 -35 15t-14 36q0 27 21.5 47t48.5 20q21 0 35 -14.5t14 -35.5zM486 58q0 -27 -21.5 -47.5t-49.5 -20.5q-20 0 -34.5 15t-14.5 36q0 27 22 47t49 20q21 0 35 -14.5t14 -35.5zM761 58q0 -27 -21 -47.5t-48 -20.5q-21 0 -35 15
t-14 36q0 27 21 47t48 20q21 0 35 -14.5t14 -35.5z" />
    <glyph glyph-name="guilsinglleft" unicode="&#x2039;" horiz-adv-x="262" 
d="M178 280l58 -170l-63 -24l-87 194l156 198l54 -24z" />
    <glyph glyph-name="guilsinglright" unicode="&#x203a;" horiz-adv-x="262" 
d="M185 284l-59 170l63 24l87 -194l-156 -198l-53 24z" />
    <glyph glyph-name="Euro" unicode="&#x20ac;" horiz-adv-x="704" 
d="M133 405l22 71h91q53 115 150.5 184.5t216.5 69.5q88 0 151 -28l-31 -78q-60 30 -143 30q-81 0 -148 -48.5t-103 -129.5h333l-23 -71h-339l-4 -15q-3 -14 -5 -28l-5 -42h330l-22 -71h-308q4 -77 52 -130t127 -53q91 0 167 54l20 -69q-86 -61 -213 -61q-121 0 -182 72.5
t-67 186.5h-113l22 71h94q3 22 4 26q6 38 13 59h-87z" />
    <glyph glyph-name="trademark" unicode="&#x2122;" horiz-adv-x="776" 
d="M311 659l-53 -298h-71l53 298h-110l10 64h291l-10 -64h-110zM611 465l114 255h96l-33 -359h-64l25 272l-114 -254h-73l-26 254l-70 -272h-65l95 359h88z" />
    <glyph glyph-name="apple" horiz-adv-x="1805" 
d="M1770 530q-17 -67 -58 -67q-22 0 -38 15t-22 46q-20 -37 -34.5 -49.5t-30.5 -12.5q-35 0 -54 42.5t-19 85.5q0 44 48 104.5t86 60.5q22 0 32 -29l7 26q20 -10 33 -10q6 0 12.5 2.5t10 4.5t10.5 7t9 6q-1 -10 -24 -128.5t-23 -139.5q0 -17 7 -17q18 0 38 53h10zM1496 572
q-2 -15 -9.5 -37t-26 -46.5t-41.5 -24.5q-21 0 -39.5 15.5t-24.5 45.5q-19 -38 -33.5 -50.5t-31.5 -12.5q-34 0 -53 42.5t-19 85.5q0 44 48.5 104.5t86.5 60.5q18 0 30 -24q18 105 28 138q20 -10 33 -10q9 0 15.5 2.5t16 9t12.5 8.5q-70 -366 -70 -385q0 -17 10 -17
q17 0 33.5 32.5t23.5 62.5h11zM1494 485q-6 -40 -33.5 -63t-62.5 -28q0 -27 -26.5 -47.5t-62.5 -20.5q-31 0 -55.5 14.5t-24.5 47.5q0 19 16.5 37t37.5 19v-4q-17 -3 -30.5 -15.5t-13.5 -29.5q0 -51 72 -51q76 0 80 50q-3 -1 -7 -1q-23 0 -39 9.5t-16 24.5q0 8 8 14t16 6
q15 0 28 -12.5t17 -28.5q31 4 58.5 26.5t36.5 52.5h1zM1205 530q-15 -67 -57 -67q-50 0 -60 61q-20 -37 -34.5 -49.5t-30.5 -12.5q-35 0 -54 42.5t-19 85.5q0 44 48 104.5t86 60.5q22 0 32 -29l7 26q20 -10 33 -10q6 0 12.5 2.5t10 4.5t10.5 7t9 6q-2 -14 -15 -78.5
t-23 -119.5t-10 -70q0 -17 8 -17q17 0 37 53h10zM1795 174l-75 -36l40 -32l-143 -27l8 -51l-87 71q-32 -73 -83 -124q27 -9 53 -9q68 0 92 52h5q-6 -29 -33.5 -46.5t-58.5 -17.5q-34 0 -67 12q-75 -75 -143 -75q-74 0 -74 121q-1 -1 -6 -1q-41 0 -69.5 35.5t-28.5 102.5
q0 44 52 99.5t109 55.5q22 0 36 -16.5t14 -50.5q0 -43 -41 -74.5t-87 -36.5q-12 -68 -12 -83q0 -22 27 -22q3 0 6 1v1q0 38 25 80t60 42q17 0 17 -25q0 -33 -30 -68t-63 -39q0 -110 71 -110q57 0 125 68q-80 38 -80 122q0 32 18 60t49 34v-4q-29 -9 -44.5 -35.5t-15.5 -58.5
q0 -36 22.5 -65t59.5 -44q54 61 75 129l-114 35l50 20l-66 136l53 -16l-12 80l52 -59l32 45l30 -98l42 135l22 -35l78 46v-89h50l-105 -103l103 29l-16 -53zM1189 439q-7 -34 -41.5 -59t-76.5 -25h-11q-16 -16 -47 -16q-71 0 -99 54v1q44 -50 95 -50q27 0 44 13
q-46 8 -87.5 33t-41.5 71q0 24 10 34l5 -4q-5 -11 -5 -27q0 -42 41 -65.5t88 -27.5q3 7 3 17q0 23 -18 39t-44 16q-23 0 -40 -10l-4 1q15 15 43 15q26 0 48 -17t22 -43q0 -13 -3 -18h4q37 0 67.5 18.5t37.5 54.5zM1101 42q0 -44 -25.5 -80.5t-67.5 -36.5q-18 0 -29 9.5
t-11 25.5q0 11 8 19.5t19 8.5q6 0 9 -1v-4q-10 0 -19.5 -6.5t-9.5 -16.5q0 -12 8.5 -19.5t20.5 -7.5q36 0 62.5 38t26.5 75q0 25 -14 45q-37 -80 -88 -80q-38 0 -38 53q0 34 18 54t38 24q14 114 14 139q0 3 -3.5 6.5t-8.5 3.5q-7 0 -16 -7.5t-17.5 -26.5t-8.5 -45
q0 -27 -29.5 -175t-35.5 -165q-20 10 -33 10q-12 0 -42 -20q74 386 74 412q0 24 -10.5 39t-25 25.5t-29 25.5t-25 48.5t-10.5 85.5q0 35 23 110.5t23 112.5q0 22 -10 22q-12 0 -30 -22t-30 -55q-3 -26 -19.5 -109.5t-19.5 -95.5q-22 11 -33 11q-21 0 -39 -12q42 224 42 264
q0 17 -8 17q-18 0 -38 -53h-10q6 20 12 32t19.5 23t32.5 11q50 0 59 -57q2 3 12.5 17.5t16 20.5t17 13t23.5 7q30 0 46.5 -34.5t16.5 -80.5q0 -51 -25 -126t-25 -110q0 -30 9.5 -47.5t23.5 -25t28.5 -14t27 -21.5t16.5 -41q18 29 31 39t28 10q34 0 54.5 -44.5t20.5 -82.5
q0 -37 -15 -77q18 -29 18 -58zM635 530q-15 -67 -58 -67q-21 0 -37.5 15.5t-22.5 45.5q-19 -38 -33 -50t-32 -12q-34 0 -52.5 43t-18.5 85q0 44 48.5 104.5t85.5 60.5q20 0 32 -29l6 26q20 -10 34 -10q6 0 12.5 2.5t10 4.5t10.5 7t9 6q-2 -12 -25.5 -130t-23.5 -138
q0 -17 9 -17q18 0 38 53h8zM793 316l-6 1v3q-5 25 -19.5 37t-28.5 12q-8 0 -39 -14.5t-61 -14.5q-17 0 -25.5 7.5t-8.5 17.5q0 16 14.5 24t29.5 8l58 -6q32 0 32 23q0 14 -11 22t-26 8q-11 0 -20 -5t-9 -13q0 -13 16 -13q12 0 21 6l2 -7q-10 -6 -22 -6q-25 0 -25 19
q0 11 12.5 18t25.5 7q19 0 31.5 -9.5t12.5 -25.5q0 -15 -12.5 -22.5t-26.5 -7.5l-59 7q-13 0 -25 -7t-12 -20q0 -18 25 -18q17 0 50 16.5t45 16.5q26 0 43.5 -18t17.5 -46zM359 591q0 -31 -16.5 -60.5t-43.5 -49.5q15 -15 15 -43q0 -46 -55 -70q1 -2 1 -5q0 -19 -16 -32
t-35 -13h-5l4 5q12 0 27 10.5t15 25.5q0 4 -1 6q-20 -8 -49 -8q-27 0 -56 10.5t-29 32.5q0 15 17 22.5t34 7.5q23 0 50.5 -14.5t38.5 -33.5q46 20 46 58q0 22 -11 36q-34 -21 -71 -21q-59 0 -97.5 42.5t-38.5 113.5q0 18 12 54q-32 23 -32 73q0 48 29.5 89t72.5 41
q5 0 15 -2v-6q-4 1 -12 1q-40 0 -69 -38.5t-29 -82.5t30 -64q34 77 100 153.5t109 76.5q40 0 40 -68q0 -53 -45.5 -103.5t-103.5 -72.5v-2q-1 -1 -1 -2q-28 -107 -28 -147q0 -19 12 -31t20.5 -14t14.5 -2q32 0 62 22q-17 12 -44 12q-28 0 -35 -7v4q15 11 33 11q30 0 52 -14
q24 20 38.5 51t14.5 63q0 57 -35 57q-34 0 -56 -30t-22 -65q0 -12 5.5 -24.5t17.5 -12.5q18 0 29 22t11 43q0 2 -1.5 8t-1.5 8h8q2 -6 2 -16q0 -24 -14 -48.5t-33 -24.5q-30 0 -30 48q0 35 23.5 67.5t58.5 32.5q26 0 42 -23.5t16 -56.5zM820 -25q0 -36 -30 -60h-8
q32 26 32 56q0 44 -37 53q5 -40 5 -67q0 -48 -40.5 -73.5t-91.5 -25.5q-33 0 -59 19t-26 49q0 29 19.5 41.5t39.5 12.5q11 0 16 -1q17 34 57 51v3q-3 10 -3 30q-25 -52 -70 -52q-24 0 -40.5 26t-16.5 64q0 27 22.5 84t22.5 75q0 29 -10 29q-14 0 -26.5 -14t-16.5 -24
q0 -46 -44 -67q0 -180 -146 -180q-43 0 -72.5 20t-29.5 62q0 27 15.5 48.5t39.5 21.5q16 0 24 -11t8 -26q0 -27 -14.5 -47.5t-37.5 -20.5q-4 0 -11.5 2.5t-9.5 3.5q4 -15 17 -25.5t26 -10.5q27 0 47.5 27.5t30 58t20.5 77.5q-32 13 -46 40q-12 -5 -17 -5q-72 0 -72 75
q0 57 40.5 102t97.5 45q46 0 81.5 -16t45.5 -16q6 0 20 2v-5q-71 -17 -117 -80q-2 24 -19.5 38.5t-43.5 14.5q-37 0 -66 -31t-29 -69q0 -53 58 -53q10 0 19 4q-8 16 -8 35q0 26 13.5 43.5t27.5 17.5q11 0 17 -7.5t6 -17.5q0 -20 -13.5 -40.5t-32.5 -32.5q9 -22 39 -35
q24 91 59 133q52 56 88 60v-7q-58 -28 -58 -138q0 -30 2 -47q40 19 40 58q0 32 -15 47v2q17 -10 19 -38q23 41 62 41q30 0 45 -27.5t15 -67.5q0 -15 -22.5 -73t-22.5 -84q0 -21 12 -21q23 0 40 42t34.5 129.5t20.5 98.5q20 -10 32 -10q9 0 16 3t16 9l12 8q-1 -7 -17 -74
t-22.5 -110t-4.5 -72v-17q21 -5 33.5 -21.5t12.5 -41.5zM517 -4q0 -36 -25 -62.5t-60 -32.5q-20 -35 -73 -35q-34 0 -65.5 16t-31.5 46q0 14 9 25t24 11q9 0 15 -2q-42 39 -84 55.5t-98 16.5q-31 0 -108 -10q21 7 51 16.5t42 13.5q46 17 81 55.5t35 74.5q0 43 -29 66.5
t-72 23.5q-90 0 -90 -51q0 -16 17.5 -25.5t37.5 -9.5q24 0 65 35v-9q-11 -16 -29 -28t-36 -12q-27 0 -46 13.5t-19 35.5q0 61 95 61q55 0 85.5 -28.5t30.5 -76.5q0 -25 -19.5 -53.5t-36.5 -44t-33 -26.5l17 -4q53 -11 88 -32t69 -65h-2v-2q-16 4 -21 4q-32 0 -32 -28
q0 -27 30.5 -41t59.5 -14q40 0 59 26h-3q-23 0 -48 12t-25 35q0 28 33 28q23 0 42.5 -15.5t19.5 -36.5q0 -7 -2 -10q32 7 54.5 28t22.5 56q0 22 -5 38h3q7 -12 7 -38zM1672 689q0 56 -19 56q-9 0 -15 -8.5t-8.5 -17t-5.5 -22.5t-4 -17q-30 -168 -30 -194q0 -11 7 -11
q32 0 53 90q3 44 22 124zM1375 699q-1 46 -17 46q-7 0 -12.5 -4.5t-9.5 -14t-5.5 -15.5t-4 -18t-2.5 -13q-31 -174 -31 -194q0 -11 8 -11q24 0 37.5 43t36.5 181zM1390 406q-7 33 -35 33q-15 0 -15 -13q0 -20 46 -20h4zM1108 689q0 56 -19 56q-7 0 -12.5 -4.5t-9 -13.5
t-5.5 -16t-4 -18t-2 -13q-31 -174 -31 -194q0 -11 8 -11q31 0 52 90q5 47 23 124zM1291 272q0 22 -10 22q-40 0 -71 -158q25 4 44.5 30t28 55t8.5 51zM1320 123q0 14 -9 14q-28 0 -51.5 -38.5t-23.5 -73.5v-2q24 0 54 35t30 65zM538 689q0 56 -18 56q-12 0 -20.5 -22
t-12.5 -43q-30 -168 -30 -194q0 -11 8 -11q29 0 50 90q5 47 23 124zM1008 131q-21 -2 -35 -24.5t-14 -48.5q0 -34 24 -34q5 0 8.5 7t6 22t4 25.5t4 29.5t2.5 23zM326 868q0 25 -17 25q-11 0 -21 -12t-27 -48q0 -1 -11 -30t-25 -68t-21 -61q50 23 86 78.5t36 115.5zM422 299
q0 20 -15 20q-17 0 -24.5 -18t-7.5 -37t5 -29q17 11 29.5 29t12.5 35zM673 -72q0 19 -29 31q-1 -4 -1 -13q0 -30 15 -30t15 12zM724 -72q0 13 -4 28t-12 37t-9 26q-37 -12 -51 -43q18 -6 27.5 -20t9.5 -25q0 -9 -6.5 -17t-18.5 -8q-11 0 -19.5 12t-8.5 26q0 12 2 18
q-6 1 -16 1q-19 0 -30 -10.5t-11 -29.5q0 -26 21.5 -41.5t49.5 -15.5q26 0 51 17.5t25 44.5zM245 378q-10 19 -34 32t-45 13q-40 0 -40 -23q0 -31 69 -31q26 0 50 9zM428 -76q0 17 -16 29.5t-33 12.5q-27 0 -27 -25q0 -17 19 -25t39 -8q18 0 18 16z" />
    </font>
</defs>
</svg>
